G04 DipTrace 3.3.1.3*
G04 SkyeTrackerV8.0.gbs*
%MOIN*%
G04 #@! TF.FileFunction,Soldermask,Bot*
G04 #@! TF.Part,Single*
%ADD35R,0.07874X0.07874*%
%ADD36C,0.07874*%
%ADD44C,0.059055*%
%ADD45C,0.125984*%
%ADD58C,0.125984*%
%ADD60C,0.086614*%
%ADD61R,0.086614X0.086614*%
%ADD72C,0.106299*%
%ADD74R,0.106299X0.106299*%
%FSLAX26Y26*%
G04*
G70*
G90*
G75*
G01*
G04 BotMask*
%LPD*%
D44*
X787400Y2638210D3*
Y2929549D3*
D74*
X2192205Y1329822D3*
D72*
Y1479822D3*
D74*
X2192223Y2353444D3*
D72*
Y2503444D3*
D74*
Y2786514D3*
D72*
Y2936514D3*
D35*
X1200035Y2012621D3*
D36*
Y1912621D3*
Y1812621D3*
Y1712621D3*
Y1612621D3*
Y1512621D3*
Y1412621D3*
Y1312621D3*
Y1212621D3*
Y1112621D3*
Y1012621D3*
Y912621D3*
Y812621D3*
Y712621D3*
Y612621D3*
X1800035D3*
Y712621D3*
Y812621D3*
Y912621D3*
Y1012621D3*
Y1112621D3*
Y1212621D3*
Y1312621D3*
Y1412621D3*
Y1512621D3*
Y1612621D3*
Y1712621D3*
Y1812621D3*
Y1912621D3*
Y2012621D3*
D61*
X1081273Y3794058D3*
D60*
X1131273Y3994058D3*
X1181273Y3794058D3*
X1231273Y3994058D3*
X1281273Y3794058D3*
X1331273Y3994058D3*
X1381273Y3794058D3*
X1431273Y3994058D3*
X1481273Y3794058D3*
X1531273Y3994058D3*
X1581273Y3794058D3*
X1631273Y3994058D3*
X1681273Y3794058D3*
X1731273Y3994058D3*
X1781273Y3794058D3*
D58*
X1073399Y4227129D3*
X1789147D3*
D74*
X2192223Y1766633D3*
D72*
Y1916633D3*
Y2066633D3*
D45*
X515163Y512264D3*
Y4213051D3*
X2247446D3*
Y512264D3*
M02*
