G04 DipTrace 3.3.1.3*
G04 SkyeTrackerV8.0.gts*
%MOIN*%
G04 #@! TF.FileFunction,Soldermask,Top*
G04 #@! TF.Part,Single*
%AMOUTLINE0*
4,1,4,
-0.03937,-0.086614,
-0.03937,0.086614,
0.03937,0.086614,
0.03937,-0.086614,
-0.03937,-0.086614,
0*%
%AMOUTLINE1*
4,1,4,
0.019685,0.035433,
0.019685,-0.035433,
-0.019685,-0.035433,
-0.019685,0.035433,
0.019685,0.035433,
0*%
%ADD20R,0.062992X0.153543*%
%ADD21R,0.03937X0.116142*%
%ADD24R,0.05X0.082677*%
%ADD25R,0.047244X0.047244*%
%ADD29R,0.15748X0.212598*%
%ADD34R,0.07874X0.03937*%
%ADD35R,0.07874X0.07874*%
%ADD36C,0.07874*%
%ADD41R,0.059055X0.031496*%
%ADD44C,0.059055*%
%ADD45C,0.125984*%
%ADD54R,0.425197X0.362205*%
%ADD56R,0.047244X0.125984*%
%ADD58C,0.125984*%
%ADD60C,0.086614*%
%ADD61R,0.086614X0.086614*%
%ADD64R,0.086614X0.031496*%
%ADD68R,0.070866X0.07874*%
%ADD72C,0.106299*%
%ADD74R,0.106299X0.106299*%
%ADD76R,0.055118X0.07874*%
%ADD82R,0.051181X0.047244*%
%ADD90OUTLINE0*%
%ADD91OUTLINE1*%
%FSLAX26Y26*%
G04*
G70*
G90*
G75*
G01*
G04 TopMask*
%LPD*%
D90*
X787400Y3106714D3*
Y2461045D3*
D44*
Y2638210D3*
Y2929549D3*
D20*
X2093798Y725688D3*
Y1060333D3*
D21*
X1031268Y3341829D3*
Y3530806D3*
X1375054Y3341829D3*
Y3530806D3*
D82*
X956260Y1968866D3*
X889331D3*
X616513D3*
X683442D3*
D24*
X2258365Y3994079D3*
X2102459D3*
X706234Y3963877D3*
X550328D3*
X2258365Y3777543D3*
X2102459D3*
X706234Y3747341D3*
X550328D3*
X2258365Y3561008D3*
X2102459D3*
X706234Y3530806D3*
X550328D3*
X2258365Y3344472D3*
X2102459D3*
X706234Y3314270D3*
X550328D3*
X2258365Y3127937D3*
X2102459D3*
X1915845Y2861514D3*
X1759940D3*
D25*
X714900Y531215D3*
X797577D3*
D76*
X1772932Y2270963D3*
X1902853D3*
X1772932Y2467814D3*
X1902853D3*
Y2664664D3*
X1772932D3*
D74*
X2192205Y1329822D3*
D72*
Y1479822D3*
D74*
X2192223Y2353444D3*
D72*
Y2503444D3*
D74*
Y2786514D3*
D72*
Y2936514D3*
D29*
X1587576Y2756449D3*
X1201749D3*
D68*
X1175033Y2343906D3*
X1285269D3*
X1598668D3*
X1488432D3*
X912505Y531215D3*
X1022741D3*
D35*
X1200035Y2012621D3*
D36*
Y1912621D3*
Y1812621D3*
Y1712621D3*
Y1612621D3*
Y1512621D3*
Y1412621D3*
Y1312621D3*
Y1212621D3*
Y1112621D3*
Y1012621D3*
Y912621D3*
Y812621D3*
Y712621D3*
Y612621D3*
X1800035D3*
Y712621D3*
Y812621D3*
Y912621D3*
Y1012621D3*
Y1112621D3*
Y1212621D3*
Y1312621D3*
Y1412621D3*
Y1512621D3*
Y1612621D3*
Y1712621D3*
Y1812621D3*
Y1912621D3*
Y2012621D3*
D64*
X593722Y2243895D3*
Y2193895D3*
Y2143895D3*
Y2093895D3*
X806320D3*
Y2143895D3*
Y2193895D3*
Y2243895D3*
D34*
X1043769Y1043769D3*
Y1102824D3*
Y1161879D3*
Y1220934D3*
Y1279990D3*
Y1339045D3*
Y1398100D3*
Y1457155D3*
Y1516210D3*
Y1575265D3*
Y1634320D3*
Y1693375D3*
Y1752430D3*
X531958D3*
Y1693375D3*
Y1634320D3*
Y1575265D3*
Y1516210D3*
Y1457155D3*
Y1398100D3*
Y1339045D3*
Y1279990D3*
Y1220934D3*
Y1161879D3*
Y1102824D3*
Y1043769D3*
D91*
X994556Y1821328D3*
X935501D3*
X876446D3*
X817391D3*
X758336D3*
X699281D3*
X640226D3*
X581171D3*
D61*
X1081273Y3794058D3*
D60*
X1131273Y3994058D3*
X1181273Y3794058D3*
X1231273Y3994058D3*
X1281273Y3794058D3*
X1331273Y3994058D3*
X1381273Y3794058D3*
X1431273Y3994058D3*
X1481273Y3794058D3*
X1531273Y3994058D3*
X1581273Y3794058D3*
X1631273Y3994058D3*
X1681273Y3794058D3*
X1731273Y3994058D3*
X1781273Y3794058D3*
D58*
X1073399Y4227129D3*
X1789147D3*
D56*
X1664664Y3119388D3*
X1731593D3*
X1798522D3*
X1865451D3*
X1932381D3*
D54*
X1798522Y3509152D3*
D41*
X1018766Y2268898D3*
Y2174409D3*
D74*
X2192223Y1766633D3*
D72*
Y1916633D3*
Y2066633D3*
D45*
X515163Y512264D3*
Y4213051D3*
X2247446D3*
Y512264D3*
M02*
