G04 DipTrace 3.3.1.3*
G04 SkyeTrackerV8.0.gbl*
%MOIN*%
G04 #@! TF.FileFunction,Copper,L2,Bot*
G04 #@! TF.Part,Single*
G04 #@! TA.AperFunction,Conductor*
%ADD13C,0.012992*%
%ADD14C,0.03937*%
G04 #@! TA.AperFunction,CopperBalancing*
%ADD15C,0.025*%
G04 #@! TA.AperFunction,ComponentPad*
%ADD27R,0.098425X0.098425*%
%ADD28C,0.098425*%
%ADD31R,0.070866X0.070866*%
%ADD32C,0.070866*%
%ADD35R,0.07874X0.07874*%
%ADD36C,0.07874*%
%ADD37C,0.11811*%
G04 #@! TA.AperFunction,ViaPad*
%ADD42C,0.04*%
%FSLAX26Y26*%
G04*
G70*
G90*
G75*
G01*
G04 Bottom*
%LPD*%
X1800035Y1912621D2*
D13*
X1888227D1*
X1960940Y1985333D1*
X2110924D1*
X2192223Y2066633D1*
X1134266Y3419388D2*
X1081273Y3472382D1*
Y3794058D1*
X1200035Y1712621D2*
X1254959Y1767545D1*
Y2126794D1*
X1241782Y2139971D1*
Y2217558D1*
X2093798Y835451D2*
Y1381415D1*
X2192205Y1479822D1*
X2192223Y2066633D2*
X2267424Y2141833D1*
Y2861514D1*
X1431273Y3994058D2*
X1541962Y3883369D1*
X1691962D1*
X1781273Y3794058D1*
X1081273D2*
X1170584Y3883369D1*
X1320584D1*
X1431273Y3994058D1*
X2192205Y1479822D2*
X2260924Y1548541D1*
Y1959349D1*
X2234940Y1985333D1*
X2192223D1*
Y2066633D1*
X1531273Y3994058D2*
X1472415Y4052916D1*
X899054D1*
X873070Y4026932D1*
Y1438605D1*
X899054Y1412621D1*
X1200035D1*
X932558Y2034026D2*
Y2118873D1*
X1226018Y2412333D1*
X1618668Y2484302D2*
Y1893988D1*
X1800035Y1712621D1*
X1488428Y2424814D2*
Y2484302D1*
Y3514235D1*
X847085Y4118782D2*
Y1338605D1*
X873070Y1312621D1*
X1200035D1*
X1918129Y3264428D2*
D14*
X1825294D1*
X1772932Y3212066D1*
Y2536239D1*
X1731273Y3994058D2*
X2064030D1*
X2116392Y3941696D1*
Y3264428D1*
X1527920Y3669018D2*
D13*
Y1540505D1*
X1200035Y1212621D1*
X977605Y2752774D2*
Y3883369D1*
X1003589Y3909353D1*
X1246568D1*
X1331273Y3994058D1*
X711255Y2752774D2*
Y1138605D1*
X737239Y1112621D1*
X1200035D1*
X1918129Y2966239D2*
D14*
Y3211436D1*
X1673010Y3270459D2*
Y2139646D1*
X1800035Y2012621D1*
X1812236Y2024822D1*
X2025554D1*
X1200035Y1612621D2*
D13*
X1281273Y1693858D1*
Y3794058D1*
X1200035Y1512621D2*
X1381273Y1693858D1*
Y3794058D1*
X1800035Y1212621D2*
X2041829Y1454415D1*
Y1766239D1*
X2192223Y1916633D1*
X912558Y3688837D2*
D14*
Y3941696D1*
X964920Y3994058D1*
X1131273D1*
X2192223Y2936514D2*
Y4039727D1*
X2139861Y4092089D1*
X979133D1*
X899762Y4171459D1*
X816589D1*
X764227Y4119097D1*
Y3688837D1*
Y3314270D1*
X1420762Y3688837D2*
X1453621Y3721696D1*
X1853322D1*
X1961849Y3830223D1*
X2063715D1*
Y3635026D1*
X1181273Y3794058D2*
X1181274Y3636160D1*
X2063715Y3635026D2*
Y2664664D1*
X2011038Y3777546D2*
Y2555806D1*
X2063400Y2503444D1*
X2192223D1*
X1175034Y2093896D2*
D13*
Y2270550D1*
X971404Y1551522D2*
Y1783990D1*
X1200035Y2012621D1*
X1131613Y1461007D2*
Y1844198D1*
X1200035Y1912621D1*
D42*
X2267424Y2861514D3*
X1134266Y3419388D3*
X2093798Y835451D3*
X1241782Y2217558D3*
X1226018Y2412333D3*
X1618668Y2484302D3*
X1488428Y3514235D3*
Y2484302D3*
X932558Y2034026D3*
X1488428Y2424814D3*
X847085Y4118782D3*
X1772932Y2536239D3*
X1918129Y3264428D3*
X2116392D3*
X1527920Y3669018D3*
X977605Y2752774D3*
X711255D3*
X912558Y3688837D3*
X764227D3*
Y3314270D3*
X2063715Y3635026D3*
X1420762Y3688837D3*
X2063715Y2664664D3*
X1181274Y3636160D3*
X2011038Y3777546D3*
X1175034Y2270550D3*
Y2093896D3*
X971404Y1551522D3*
X1131613Y1461007D3*
X1918129Y3211436D3*
Y2966239D3*
X2025554Y2024822D3*
X1673010Y3270459D3*
X608730Y4250491D2*
D15*
X988593D1*
X1158193D2*
X1704365D1*
X1873965D2*
X2153877D1*
X608730Y4225622D2*
X985370D1*
X1161415D2*
X1701093D1*
X1877186D2*
X2153877D1*
X608730Y4200753D2*
X778094D1*
X938270D2*
X989521D1*
X1157265D2*
X1705244D1*
X1873037D2*
X2153877D1*
X608730Y4175885D2*
X753193D1*
X963125D2*
X1002412D1*
X1144423D2*
X1718134D1*
X1860146D2*
X2153877D1*
X608730Y4151016D2*
X728339D1*
X988026D2*
X1031854D1*
X1114930D2*
X1747577D1*
X1830702D2*
X2153877D1*
X608730Y4126147D2*
X716083D1*
X452480Y4101278D2*
X715546D1*
X2198476D2*
X2310175D1*
X452480Y4076409D2*
X715546D1*
X2223329D2*
X2310175D1*
X452480Y4051541D2*
X715546D1*
X2239345D2*
X2310175D1*
X452480Y4026672D2*
X715546D1*
X2099209D2*
X2137470D1*
X2240908D2*
X2310175D1*
X452480Y4001803D2*
X715546D1*
X1399160D2*
X1463349D1*
X2124110D2*
X2143525D1*
X2240908D2*
X2310175D1*
X452480Y3976934D2*
X715546D1*
X1397353D2*
X1465156D1*
X2240908D2*
X2310175D1*
X452480Y3952066D2*
X715546D1*
X1384510D2*
X1478046D1*
X2240908D2*
X2310175D1*
X452480Y3927197D2*
X715546D1*
X1313564D2*
X2063105D1*
X2240908D2*
X2310175D1*
X452480Y3902328D2*
X715546D1*
X1288710D2*
X2067694D1*
X2240908D2*
X2310175D1*
X452480Y3877459D2*
X715546D1*
X1257509D2*
X2067694D1*
X2240908D2*
X2310175D1*
X452480Y3852591D2*
X715546D1*
X1013076D2*
X1148554D1*
X1213954D2*
X1248554D1*
X1313954D2*
X1348554D1*
X1413954D2*
X1448554D1*
X1513954D2*
X1548554D1*
X1613954D2*
X1648554D1*
X1713954D2*
X1916425D1*
X2240908D2*
X2310175D1*
X452480Y3827722D2*
X715546D1*
X1013076D2*
X1122186D1*
X1740370D2*
X1891522D1*
X2240908D2*
X2310175D1*
X452480Y3802853D2*
X715546D1*
X1013076D2*
X1113496D1*
X1749062D2*
X1866669D1*
X2240908D2*
X2310175D1*
X452480Y3777984D2*
X715546D1*
X1013076D2*
X1114912D1*
X1747646D2*
X1841816D1*
X2240908D2*
X2310175D1*
X452480Y3753115D2*
X715546D1*
X1013076D2*
X1127167D1*
X1952529D2*
X1962378D1*
X2240908D2*
X2310175D1*
X452480Y3728247D2*
X715546D1*
X1013076D2*
X1132587D1*
X1229970D2*
X1245743D1*
X1316738D2*
X1345770D1*
X1927675D2*
X1962373D1*
X2240908D2*
X2310175D1*
X452480Y3703378D2*
X715546D1*
X1013076D2*
X1132587D1*
X1229970D2*
X1245743D1*
X1316738D2*
X1345770D1*
X1902822D2*
X1962373D1*
X2240908D2*
X2310175D1*
X452480Y3678509D2*
X715546D1*
X1013076D2*
X1132587D1*
X1229970D2*
X1245743D1*
X1316738D2*
X1345770D1*
X1872157D2*
X1962373D1*
X2240908D2*
X2310175D1*
X452480Y3653640D2*
X715546D1*
X1013076D2*
X1132587D1*
X1229970D2*
X1245743D1*
X1316738D2*
X1345770D1*
X1453652D2*
X1481562D1*
X1574306D2*
X1962373D1*
X2240908D2*
X2310175D1*
X452480Y3628772D2*
X715546D1*
X908534D2*
X942109D1*
X1013076D2*
X1132881D1*
X1229677D2*
X1245810D1*
X1316738D2*
X1345770D1*
X1416738D2*
X1492450D1*
X1563417D2*
X1962373D1*
X2240908D2*
X2310175D1*
X452480Y3603903D2*
X715546D1*
X908534D2*
X942109D1*
X1013076D2*
X1145282D1*
X1217274D2*
X1245770D1*
X1316738D2*
X1345770D1*
X1416738D2*
X1492450D1*
X1563417D2*
X1962373D1*
X2240908D2*
X2310175D1*
X452480Y3579034D2*
X715546D1*
X908534D2*
X942109D1*
X1013076D2*
X1245770D1*
X1316738D2*
X1345770D1*
X1416738D2*
X1492450D1*
X1563417D2*
X1962373D1*
X2240908D2*
X2310175D1*
X452480Y3554165D2*
X715546D1*
X908534D2*
X942109D1*
X1013076D2*
X1245770D1*
X1316738D2*
X1345770D1*
X1416738D2*
X1462129D1*
X1563417D2*
X1962373D1*
X2240908D2*
X2310175D1*
X452480Y3529297D2*
X715546D1*
X908534D2*
X942109D1*
X1013076D2*
X1245770D1*
X1316738D2*
X1345770D1*
X1416738D2*
X1441962D1*
X1563417D2*
X1962373D1*
X2240908D2*
X2310175D1*
X452480Y3504428D2*
X715546D1*
X908534D2*
X942109D1*
X1013076D2*
X1245770D1*
X1316738D2*
X1345770D1*
X1416738D2*
X1440497D1*
X1563417D2*
X1962373D1*
X2240908D2*
X2310175D1*
X452480Y3479559D2*
X715546D1*
X908534D2*
X942109D1*
X1013076D2*
X1245770D1*
X1316738D2*
X1345770D1*
X1416738D2*
X1452949D1*
X1563417D2*
X1962373D1*
X2240908D2*
X2310175D1*
X452480Y3454690D2*
X715546D1*
X908534D2*
X942109D1*
X1013076D2*
X1245770D1*
X1316738D2*
X1345770D1*
X1416738D2*
X1452949D1*
X1563417D2*
X1962373D1*
X2240908D2*
X2310175D1*
X452480Y3429822D2*
X715546D1*
X908534D2*
X942109D1*
X1013076D2*
X1245770D1*
X1316738D2*
X1345770D1*
X1416738D2*
X1452949D1*
X1563417D2*
X1962373D1*
X2240908D2*
X2310175D1*
X452480Y3404953D2*
X715546D1*
X908534D2*
X942109D1*
X1013076D2*
X1245770D1*
X1316738D2*
X1345770D1*
X1416738D2*
X1452949D1*
X1563417D2*
X1962373D1*
X2240908D2*
X2310175D1*
X452480Y3380084D2*
X715546D1*
X908534D2*
X942109D1*
X1013076D2*
X1245770D1*
X1316738D2*
X1345770D1*
X1416738D2*
X1452949D1*
X1563417D2*
X1962373D1*
X2240908D2*
X2310175D1*
X452480Y3355215D2*
X715546D1*
X908534D2*
X942109D1*
X1013076D2*
X1245770D1*
X1316738D2*
X1345770D1*
X1416738D2*
X1452949D1*
X1563417D2*
X1962373D1*
X2240908D2*
X2310175D1*
X452480Y3330346D2*
X715546D1*
X908534D2*
X942109D1*
X1013076D2*
X1245770D1*
X1316738D2*
X1345770D1*
X1416738D2*
X1452949D1*
X1563417D2*
X1962373D1*
X2240908D2*
X2310175D1*
X452480Y3305478D2*
X716083D1*
X908534D2*
X942109D1*
X1013076D2*
X1245770D1*
X1316738D2*
X1345770D1*
X1416738D2*
X1452949D1*
X1563417D2*
X1639912D1*
X1706093D2*
X1801630D1*
X1942470D2*
X1962373D1*
X2240908D2*
X2310175D1*
X452480Y3280609D2*
X729657D1*
X798818D2*
X811591D1*
X908534D2*
X942109D1*
X1013076D2*
X1245770D1*
X1316738D2*
X1345770D1*
X1416738D2*
X1452949D1*
X1563417D2*
X1625117D1*
X1720888D2*
X1773652D1*
X2240908D2*
X2310175D1*
X452480Y3255740D2*
X811591D1*
X908534D2*
X942109D1*
X1013076D2*
X1245770D1*
X1316738D2*
X1345770D1*
X1416738D2*
X1452949D1*
X1563417D2*
X1624335D1*
X1721669D2*
X1748798D1*
X2240908D2*
X2310175D1*
X452480Y3230871D2*
X811591D1*
X908534D2*
X942109D1*
X1013076D2*
X1245770D1*
X1316738D2*
X1345770D1*
X1416738D2*
X1452949D1*
X1563417D2*
X1624335D1*
X2240908D2*
X2310175D1*
X452480Y3206003D2*
X811591D1*
X908534D2*
X942109D1*
X1013076D2*
X1245770D1*
X1316738D2*
X1345770D1*
X1416738D2*
X1452949D1*
X1563417D2*
X1624335D1*
X1834657D2*
X1869453D1*
X2112392D2*
X2143525D1*
X2240908D2*
X2310175D1*
X452480Y3181134D2*
X811591D1*
X908534D2*
X942109D1*
X1013076D2*
X1245770D1*
X1316738D2*
X1345770D1*
X1416738D2*
X1452949D1*
X1563417D2*
X1624335D1*
X1821621D2*
X1869453D1*
X2112392D2*
X2143525D1*
X2240908D2*
X2310175D1*
X452480Y3156265D2*
X811591D1*
X908534D2*
X942109D1*
X1013076D2*
X1245770D1*
X1316738D2*
X1345770D1*
X1416738D2*
X1452949D1*
X1563417D2*
X1624335D1*
X1821621D2*
X1869453D1*
X2112392D2*
X2143525D1*
X2240908D2*
X2310175D1*
X452480Y3131396D2*
X811591D1*
X908534D2*
X942109D1*
X1013076D2*
X1245770D1*
X1316738D2*
X1345770D1*
X1416738D2*
X1452949D1*
X1563417D2*
X1624335D1*
X1821621D2*
X1869453D1*
X2112392D2*
X2143525D1*
X2240908D2*
X2310175D1*
X452480Y3106528D2*
X811591D1*
X908534D2*
X942109D1*
X1013076D2*
X1245770D1*
X1316738D2*
X1345770D1*
X1416738D2*
X1452949D1*
X1563417D2*
X1624335D1*
X1821621D2*
X1869453D1*
X2112392D2*
X2143525D1*
X2240908D2*
X2310175D1*
X452480Y3081659D2*
X811591D1*
X908534D2*
X942109D1*
X1013076D2*
X1245770D1*
X1316738D2*
X1345770D1*
X1416738D2*
X1452949D1*
X1563417D2*
X1624335D1*
X1821621D2*
X1869453D1*
X2112392D2*
X2143525D1*
X2240908D2*
X2310175D1*
X452480Y3056790D2*
X811591D1*
X908534D2*
X942109D1*
X1013076D2*
X1245770D1*
X1316738D2*
X1345770D1*
X1416738D2*
X1452949D1*
X1563417D2*
X1624335D1*
X1821621D2*
X1869453D1*
X2112392D2*
X2143525D1*
X2240908D2*
X2310175D1*
X452480Y3031921D2*
X811591D1*
X908534D2*
X942109D1*
X1013076D2*
X1245770D1*
X1316738D2*
X1345770D1*
X1416738D2*
X1452949D1*
X1563417D2*
X1624335D1*
X1821621D2*
X1869453D1*
X2112392D2*
X2143525D1*
X2240908D2*
X2310175D1*
X452480Y3007052D2*
X811591D1*
X908534D2*
X942109D1*
X1013076D2*
X1245770D1*
X1316738D2*
X1345770D1*
X1416738D2*
X1452949D1*
X1563417D2*
X1624335D1*
X1821621D2*
X1869453D1*
X2112392D2*
X2143525D1*
X2240908D2*
X2310175D1*
X452480Y2982184D2*
X765741D1*
X908534D2*
X942109D1*
X1013076D2*
X1245770D1*
X1316738D2*
X1345770D1*
X1416738D2*
X1452949D1*
X1563417D2*
X1624335D1*
X1821621D2*
X1869453D1*
X2112392D2*
X2129365D1*
X2255117D2*
X2310175D1*
X452480Y2957315D2*
X736249D1*
X908534D2*
X942109D1*
X1013076D2*
X1245770D1*
X1316738D2*
X1345770D1*
X1416738D2*
X1452949D1*
X1563417D2*
X1624335D1*
X1821621D2*
X1869990D1*
X2267518D2*
X2310175D1*
X452480Y2932446D2*
X728974D1*
X908534D2*
X942109D1*
X1013076D2*
X1245770D1*
X1316738D2*
X1345770D1*
X1416738D2*
X1452949D1*
X1563417D2*
X1624335D1*
X1821621D2*
X1883710D1*
X1952577D2*
X1962398D1*
X2270302D2*
X2310175D1*
X452480Y2907577D2*
X733369D1*
X908534D2*
X942109D1*
X1013076D2*
X1245770D1*
X1316738D2*
X1345770D1*
X1416738D2*
X1452949D1*
X1563417D2*
X1624335D1*
X1821621D2*
X1962373D1*
X2264686D2*
X2310175D1*
X452480Y2882709D2*
X754169D1*
X908534D2*
X942109D1*
X1013076D2*
X1245770D1*
X1316738D2*
X1345770D1*
X1416738D2*
X1452949D1*
X1563417D2*
X1624335D1*
X1821621D2*
X1962373D1*
X2112392D2*
X2136445D1*
X2247988D2*
X2310175D1*
X452480Y2857840D2*
X811591D1*
X908534D2*
X942109D1*
X1013076D2*
X1245770D1*
X1316738D2*
X1345770D1*
X1416738D2*
X1452949D1*
X1563417D2*
X1624335D1*
X1821621D2*
X1962373D1*
X2270449D2*
X2310175D1*
X452480Y2832971D2*
X811591D1*
X908534D2*
X942109D1*
X1013076D2*
X1245770D1*
X1316738D2*
X1345770D1*
X1416738D2*
X1452949D1*
X1563417D2*
X1624335D1*
X1821621D2*
X1962373D1*
X2270449D2*
X2310175D1*
X452480Y2808102D2*
X811591D1*
X908534D2*
X942109D1*
X1013076D2*
X1245770D1*
X1316738D2*
X1345770D1*
X1416738D2*
X1452949D1*
X1563417D2*
X1624335D1*
X1821621D2*
X1962373D1*
X2270449D2*
X2310175D1*
X452480Y2783234D2*
X673652D1*
X748866D2*
X811591D1*
X908534D2*
X939961D1*
X1015224D2*
X1245770D1*
X1316738D2*
X1345770D1*
X1416738D2*
X1452949D1*
X1563417D2*
X1624335D1*
X1821621D2*
X1962373D1*
X2270449D2*
X2310175D1*
X452480Y2758365D2*
X662617D1*
X759902D2*
X811591D1*
X908534D2*
X928974D1*
X1026259D2*
X1245770D1*
X1316738D2*
X1345770D1*
X1416738D2*
X1452949D1*
X1563417D2*
X1624335D1*
X1821621D2*
X1962373D1*
X2270449D2*
X2310175D1*
X452480Y2733496D2*
X666425D1*
X756045D2*
X811591D1*
X908534D2*
X932782D1*
X1022402D2*
X1245770D1*
X1316738D2*
X1345770D1*
X1416738D2*
X1452949D1*
X1563417D2*
X1624335D1*
X1821621D2*
X1962373D1*
X2270449D2*
X2310175D1*
X452480Y2708627D2*
X675751D1*
X746766D2*
X811591D1*
X908534D2*
X960517D1*
X994667D2*
X1245770D1*
X1316738D2*
X1345770D1*
X1416738D2*
X1452949D1*
X1563417D2*
X1624335D1*
X1821621D2*
X1962373D1*
X2112392D2*
X2310175D1*
X452480Y2683759D2*
X675751D1*
X908534D2*
X1245770D1*
X1316738D2*
X1345770D1*
X1416738D2*
X1452949D1*
X1563417D2*
X1624335D1*
X1821621D2*
X1962373D1*
X2112392D2*
X2310175D1*
X452480Y2658890D2*
X675751D1*
X908534D2*
X1245770D1*
X1316738D2*
X1345770D1*
X1416738D2*
X1452949D1*
X1563417D2*
X1624335D1*
X1821621D2*
X1962373D1*
X2112343D2*
X2310175D1*
X452480Y2634021D2*
X675751D1*
X908534D2*
X1245770D1*
X1316738D2*
X1345770D1*
X1416738D2*
X1452949D1*
X1563417D2*
X1624335D1*
X1821621D2*
X1962373D1*
X2101161D2*
X2310175D1*
X452480Y2609152D2*
X675751D1*
X908534D2*
X1245770D1*
X1316738D2*
X1345770D1*
X1416738D2*
X1452949D1*
X1563417D2*
X1624335D1*
X1821621D2*
X1962373D1*
X2059706D2*
X2310175D1*
X452480Y2584283D2*
X675751D1*
X746766D2*
X769745D1*
X908534D2*
X1245770D1*
X1316738D2*
X1345770D1*
X1416738D2*
X1452949D1*
X1563417D2*
X1624335D1*
X1821621D2*
X1962373D1*
X2059706D2*
X2310175D1*
X452480Y2559415D2*
X675751D1*
X746766D2*
X811591D1*
X908534D2*
X1245770D1*
X1316738D2*
X1345770D1*
X1416738D2*
X1452949D1*
X1563417D2*
X1624335D1*
X1821621D2*
X1962373D1*
X2075234D2*
X2138740D1*
X2245693D2*
X2310175D1*
X452480Y2534546D2*
X675751D1*
X746766D2*
X811591D1*
X908534D2*
X1245770D1*
X1316738D2*
X1345770D1*
X1416738D2*
X1452949D1*
X1563417D2*
X1624335D1*
X1821913D2*
X1967549D1*
X2263759D2*
X2310175D1*
X452480Y2509677D2*
X675751D1*
X746766D2*
X811591D1*
X908534D2*
X1245770D1*
X1316738D2*
X1345770D1*
X1416738D2*
X1446992D1*
X1563417D2*
X1577217D1*
X1721669D2*
X1732277D1*
X1813613D2*
X1989374D1*
X2270156D2*
X2310175D1*
X452480Y2484808D2*
X675751D1*
X746766D2*
X811591D1*
X908534D2*
X1245770D1*
X1316738D2*
X1345770D1*
X1416738D2*
X1439423D1*
X1721669D2*
X2014228D1*
X2268105D2*
X2310175D1*
X452480Y2459940D2*
X675751D1*
X746766D2*
X811591D1*
X908534D2*
X1245770D1*
X1316738D2*
X1345770D1*
X1416738D2*
X1446308D1*
X1563417D2*
X1576581D1*
X1721669D2*
X2045429D1*
X2256678D2*
X2310175D1*
X452480Y2435071D2*
X675751D1*
X746766D2*
X811591D1*
X908534D2*
X1182978D1*
X1316738D2*
X1345770D1*
X1416738D2*
X1440594D1*
X1563417D2*
X1583173D1*
X1721669D2*
X2157245D1*
X2227236D2*
X2310175D1*
X452480Y2410202D2*
X675751D1*
X746766D2*
X811591D1*
X908534D2*
X1174726D1*
X1316738D2*
X1345770D1*
X1416738D2*
X1441816D1*
X1563417D2*
X1583173D1*
X1721669D2*
X2114033D1*
X2270449D2*
X2310175D1*
X452480Y2385333D2*
X675751D1*
X746766D2*
X811591D1*
X908534D2*
X1149873D1*
X1316738D2*
X1345770D1*
X1416738D2*
X1461396D1*
X1563417D2*
X1583173D1*
X1721669D2*
X2114033D1*
X2270449D2*
X2310175D1*
X452480Y2360465D2*
X675751D1*
X746766D2*
X811591D1*
X908534D2*
X1125018D1*
X1223281D2*
X1245770D1*
X1316738D2*
X1345770D1*
X1416738D2*
X1492450D1*
X1563417D2*
X1583173D1*
X1721669D2*
X2114033D1*
X2270449D2*
X2310175D1*
X452480Y2335596D2*
X675751D1*
X746766D2*
X811591D1*
X908534D2*
X1100117D1*
X1198427D2*
X1245770D1*
X1316738D2*
X1345770D1*
X1416738D2*
X1492450D1*
X1563417D2*
X1583173D1*
X1721669D2*
X2114033D1*
X2270449D2*
X2310175D1*
X452480Y2310727D2*
X675751D1*
X746766D2*
X811591D1*
X908534D2*
X1075262D1*
X1200917D2*
X1245770D1*
X1316738D2*
X1345770D1*
X1416738D2*
X1492450D1*
X1563417D2*
X1583173D1*
X1721669D2*
X2114033D1*
X2270449D2*
X2310175D1*
X452480Y2285858D2*
X675751D1*
X746766D2*
X811591D1*
X908534D2*
X1050409D1*
X1221425D2*
X1245770D1*
X1316738D2*
X1345770D1*
X1416738D2*
X1492450D1*
X1563417D2*
X1583173D1*
X1721669D2*
X2114033D1*
X2270449D2*
X2310175D1*
X452480Y2260990D2*
X675751D1*
X746766D2*
X811591D1*
X908534D2*
X1025507D1*
X1223037D2*
X1245770D1*
X1316738D2*
X1345770D1*
X1416738D2*
X1492450D1*
X1563417D2*
X1583173D1*
X1721669D2*
X2310175D1*
X452480Y2236121D2*
X675751D1*
X746766D2*
X811591D1*
X908534D2*
X1000654D1*
X1098965D2*
X1139570D1*
X1210537D2*
X1245770D1*
X1316738D2*
X1345770D1*
X1416738D2*
X1492450D1*
X1563417D2*
X1583173D1*
X1721669D2*
X2310175D1*
X452480Y2211252D2*
X675751D1*
X746766D2*
X811591D1*
X908534D2*
X975801D1*
X1074110D2*
X1139570D1*
X1210537D2*
X1245770D1*
X1316738D2*
X1345770D1*
X1416738D2*
X1492450D1*
X1563417D2*
X1583173D1*
X1721669D2*
X2310175D1*
X452480Y2186383D2*
X675751D1*
X746766D2*
X811591D1*
X908534D2*
X950898D1*
X1049209D2*
X1139570D1*
X1210537D2*
X1245770D1*
X1316738D2*
X1345770D1*
X1416738D2*
X1492450D1*
X1563417D2*
X1583173D1*
X1721669D2*
X2310175D1*
X452480Y2161514D2*
X675751D1*
X746766D2*
X811591D1*
X908534D2*
X926045D1*
X1024354D2*
X1139570D1*
X1210537D2*
X1245770D1*
X1316738D2*
X1345770D1*
X1416738D2*
X1492450D1*
X1563417D2*
X1583173D1*
X1721669D2*
X2310175D1*
X452480Y2136646D2*
X675751D1*
X746766D2*
X811591D1*
X999501D2*
X1139570D1*
X1210537D2*
X1245770D1*
X1316738D2*
X1345770D1*
X1416738D2*
X1492450D1*
X1563417D2*
X1583173D1*
X1743837D2*
X2310175D1*
X452480Y2111777D2*
X675751D1*
X746766D2*
X811591D1*
X974598D2*
X1129609D1*
X1220449D2*
X1245770D1*
X1316738D2*
X1345770D1*
X1416738D2*
X1492450D1*
X1563417D2*
X1583173D1*
X1768690D2*
X2310175D1*
X452480Y2086908D2*
X675751D1*
X746766D2*
X811591D1*
X968056D2*
X1126581D1*
X1223476D2*
X1245770D1*
X1316738D2*
X1345770D1*
X1416738D2*
X1492450D1*
X1563417D2*
X1583173D1*
X1793545D2*
X2310175D1*
X452480Y2062039D2*
X675751D1*
X746766D2*
X811591D1*
X972157D2*
X1135614D1*
X1316738D2*
X1345770D1*
X1416738D2*
X1492450D1*
X1563417D2*
X1583173D1*
X1654140D2*
X1682831D1*
X2055898D2*
X2310175D1*
X452480Y2037171D2*
X675751D1*
X746766D2*
X811591D1*
X981434D2*
X1135614D1*
X1316738D2*
X1345770D1*
X1416738D2*
X1492450D1*
X1563417D2*
X1583173D1*
X1654140D2*
X1707685D1*
X2072890D2*
X2310175D1*
X452480Y2012302D2*
X675751D1*
X746766D2*
X811591D1*
X976161D2*
X1135614D1*
X1316738D2*
X1345770D1*
X1416738D2*
X1492450D1*
X1563417D2*
X1583173D1*
X1654140D2*
X1732538D1*
X2072841D2*
X2310175D1*
X452480Y1987433D2*
X675751D1*
X746766D2*
X811591D1*
X908534D2*
X1125702D1*
X1316738D2*
X1345770D1*
X1416738D2*
X1492450D1*
X1563417D2*
X1583173D1*
X1654140D2*
X1740986D1*
X2055702D2*
X2162909D1*
X2221522D2*
X2310175D1*
X452480Y1962564D2*
X675751D1*
X746766D2*
X811591D1*
X908534D2*
X1100849D1*
X1316738D2*
X1345770D1*
X1416738D2*
X1492450D1*
X1563417D2*
X1583173D1*
X1654140D2*
X1761102D1*
X1839003D2*
X2129560D1*
X2254921D2*
X2310175D1*
X452480Y1937696D2*
X675751D1*
X746766D2*
X811591D1*
X908534D2*
X1075946D1*
X1316738D2*
X1345770D1*
X1416738D2*
X1492450D1*
X1563417D2*
X1583173D1*
X1654140D2*
X2117010D1*
X2267421D2*
X2310175D1*
X452480Y1912827D2*
X675751D1*
X746766D2*
X811591D1*
X908534D2*
X1051093D1*
X1316738D2*
X1345770D1*
X1416738D2*
X1492450D1*
X1563417D2*
X1583173D1*
X1654140D2*
X2114130D1*
X2270350D2*
X2310175D1*
X452480Y1887958D2*
X675751D1*
X746766D2*
X811591D1*
X908534D2*
X1026240D1*
X1316738D2*
X1345770D1*
X1416738D2*
X1492450D1*
X1563417D2*
X1583759D1*
X1673866D2*
X2114374D1*
X2264785D2*
X2310175D1*
X452480Y1863089D2*
X675751D1*
X746766D2*
X811591D1*
X908534D2*
X1001337D1*
X1316738D2*
X1345770D1*
X1416738D2*
X1492450D1*
X1563417D2*
X1600409D1*
X1698720D2*
X1761640D1*
X1838417D2*
X2089521D1*
X2248232D2*
X2310175D1*
X452480Y1838220D2*
X675751D1*
X746766D2*
X811591D1*
X908534D2*
X976484D1*
X1074794D2*
X1096113D1*
X1316738D2*
X1345770D1*
X1416738D2*
X1492450D1*
X1563417D2*
X1625262D1*
X1723573D2*
X1741133D1*
X1858925D2*
X2064667D1*
X2270449D2*
X2310175D1*
X452480Y1813352D2*
X675751D1*
X746766D2*
X811591D1*
X908534D2*
X951630D1*
X1049941D2*
X1096113D1*
X1316738D2*
X1345770D1*
X1416738D2*
X1492450D1*
X1563417D2*
X1650165D1*
X1864442D2*
X2039814D1*
X2270449D2*
X2310175D1*
X452480Y1788483D2*
X675751D1*
X746766D2*
X811591D1*
X908534D2*
X936201D1*
X1025038D2*
X1096113D1*
X1316738D2*
X1345770D1*
X1416738D2*
X1492450D1*
X1563417D2*
X1675018D1*
X1859560D2*
X2014961D1*
X2270449D2*
X2310175D1*
X452480Y1763614D2*
X675751D1*
X746766D2*
X811591D1*
X908534D2*
X935908D1*
X1006874D2*
X1096113D1*
X1316738D2*
X1345770D1*
X1416738D2*
X1492450D1*
X1563417D2*
X1699873D1*
X1840370D2*
X2006318D1*
X2088369D2*
X2114033D1*
X2270449D2*
X2310175D1*
X452480Y1738745D2*
X675751D1*
X746766D2*
X811591D1*
X908534D2*
X935908D1*
X1006874D2*
X1096113D1*
X1167080D2*
X1245770D1*
X1316738D2*
X1345770D1*
X1416738D2*
X1492450D1*
X1563417D2*
X1724774D1*
X1858681D2*
X2006318D1*
X2077333D2*
X2114033D1*
X2270449D2*
X2310175D1*
X452480Y1713877D2*
X675751D1*
X746766D2*
X811591D1*
X908534D2*
X935908D1*
X1006874D2*
X1096113D1*
X1167080D2*
X1245770D1*
X1316738D2*
X1345770D1*
X1416738D2*
X1492450D1*
X1563417D2*
X1735614D1*
X1864442D2*
X2006318D1*
X2077333D2*
X2114033D1*
X2270449D2*
X2310175D1*
X452480Y1689008D2*
X675751D1*
X746766D2*
X811591D1*
X908534D2*
X935908D1*
X1006874D2*
X1096113D1*
X1167080D2*
X1227265D1*
X1316396D2*
X1327270D1*
X1416396D2*
X1492450D1*
X1563417D2*
X1740302D1*
X1859804D2*
X2006318D1*
X2077333D2*
X2310175D1*
X452480Y1664139D2*
X675751D1*
X746766D2*
X811591D1*
X908534D2*
X935908D1*
X1006874D2*
X1096113D1*
X1400722D2*
X1492450D1*
X1563417D2*
X1759003D1*
X1841054D2*
X2006318D1*
X2077333D2*
X2310175D1*
X452480Y1639270D2*
X675751D1*
X746766D2*
X811591D1*
X908534D2*
X935908D1*
X1006874D2*
X1096113D1*
X1375820D2*
X1492450D1*
X1563417D2*
X1741621D1*
X1858437D2*
X2006318D1*
X2077333D2*
X2310175D1*
X452480Y1614402D2*
X675751D1*
X746766D2*
X811591D1*
X908534D2*
X935908D1*
X1006874D2*
X1096113D1*
X1350966D2*
X1492450D1*
X1563417D2*
X1735614D1*
X1864442D2*
X2006318D1*
X2077333D2*
X2310175D1*
X452480Y1589533D2*
X675751D1*
X746766D2*
X811591D1*
X908534D2*
X935908D1*
X1006874D2*
X1096113D1*
X1326113D2*
X1492450D1*
X1563417D2*
X1740058D1*
X1859999D2*
X2006318D1*
X2077333D2*
X2310175D1*
X452480Y1564664D2*
X675751D1*
X746766D2*
X811591D1*
X908534D2*
X924286D1*
X1018496D2*
X1096113D1*
X1301210D2*
X1492450D1*
X1563417D2*
X1758369D1*
X1841689D2*
X2006318D1*
X2077333D2*
X2310175D1*
X452480Y1539795D2*
X675751D1*
X746766D2*
X811591D1*
X908534D2*
X923896D1*
X1018886D2*
X1096113D1*
X1276357D2*
X1478046D1*
X1563417D2*
X1741913D1*
X1858193D2*
X2006318D1*
X2077333D2*
X2310175D1*
X452480Y1514927D2*
X675751D1*
X746766D2*
X811591D1*
X908534D2*
X940253D1*
X1002577D2*
X1096113D1*
X1264394D2*
X1453193D1*
X1551503D2*
X1735664D1*
X1864394D2*
X2006318D1*
X2077333D2*
X2310175D1*
X452480Y1490058D2*
X675751D1*
X746766D2*
X811591D1*
X908534D2*
X1092793D1*
X1260194D2*
X1428339D1*
X1526601D2*
X1739862D1*
X1860194D2*
X2006318D1*
X2077333D2*
X2310175D1*
X452480Y1465189D2*
X675751D1*
X746766D2*
X811591D1*
X908534D2*
X1082831D1*
X1242324D2*
X1403437D1*
X1501747D2*
X1757734D1*
X1842324D2*
X2003437D1*
X2077333D2*
X2310175D1*
X452480Y1440320D2*
X675751D1*
X746766D2*
X811591D1*
X1257900D2*
X1378583D1*
X1476894D2*
X1742157D1*
X1857900D2*
X1978583D1*
X2074160D2*
X2310175D1*
X452480Y1415451D2*
X675751D1*
X746766D2*
X811591D1*
X1264394D2*
X1353730D1*
X1452041D2*
X1735664D1*
X1864394D2*
X1953730D1*
X2052041D2*
X2310175D1*
X452480Y1390583D2*
X675751D1*
X746766D2*
X811591D1*
X1260390D2*
X1328828D1*
X1427138D2*
X1739667D1*
X1860390D2*
X1928828D1*
X2027138D2*
X2113984D1*
X2270400D2*
X2310175D1*
X452480Y1365714D2*
X675751D1*
X746766D2*
X811591D1*
X882558D2*
X1157098D1*
X1242958D2*
X1303974D1*
X1402285D2*
X1757098D1*
X1842958D2*
X1903974D1*
X2002285D2*
X2113984D1*
X2270400D2*
X2310175D1*
X452480Y1340845D2*
X675751D1*
X746766D2*
X811591D1*
X1257656D2*
X1279121D1*
X1377430D2*
X1742402D1*
X1857656D2*
X1879121D1*
X1977430D2*
X2113984D1*
X2270400D2*
X2310175D1*
X452480Y1315976D2*
X675751D1*
X746766D2*
X820576D1*
X1352529D2*
X1735713D1*
X1952529D2*
X2113984D1*
X2270400D2*
X2310175D1*
X452480Y1291108D2*
X675751D1*
X746766D2*
X845429D1*
X1327675D2*
X1739472D1*
X1927675D2*
X2113984D1*
X2270400D2*
X2310175D1*
X452480Y1266239D2*
X675751D1*
X746766D2*
X1156513D1*
X1302822D2*
X1756513D1*
X1902822D2*
X2113984D1*
X2270400D2*
X2310175D1*
X452480Y1241370D2*
X675751D1*
X746766D2*
X1142694D1*
X1277919D2*
X1742694D1*
X1877919D2*
X2310175D1*
X452480Y1216501D2*
X675751D1*
X746766D2*
X1135713D1*
X1264345D2*
X1735713D1*
X1864345D2*
X2310175D1*
X452480Y1191633D2*
X675751D1*
X746766D2*
X1139277D1*
X1260781D2*
X1739277D1*
X1860781D2*
X2310175D1*
X452480Y1166764D2*
X675751D1*
X746766D2*
X1155927D1*
X1244130D2*
X1755927D1*
X1844130D2*
X2310175D1*
X452480Y1141895D2*
X675751D1*
X1257118D2*
X1742988D1*
X1857118D2*
X2310175D1*
X452480Y1117026D2*
X683808D1*
X1264297D2*
X1735761D1*
X1864297D2*
X2310175D1*
X452480Y1092157D2*
X708564D1*
X1260976D2*
X1739081D1*
X1860976D2*
X2310175D1*
X452480Y1067289D2*
X1155341D1*
X1244717D2*
X1755341D1*
X1844717D2*
X2310175D1*
X452480Y1042420D2*
X1143232D1*
X1256825D2*
X1743232D1*
X1856825D2*
X2310175D1*
X452480Y1017551D2*
X1135810D1*
X1264247D2*
X1735810D1*
X1864247D2*
X2310175D1*
X452480Y992682D2*
X1138886D1*
X1261171D2*
X1738886D1*
X1861171D2*
X2310175D1*
X452480Y967814D2*
X521992D1*
X1071766D2*
X1154804D1*
X1245302D2*
X1754804D1*
X1845302D2*
X2310175D1*
X1077529Y942945D2*
X1143525D1*
X1256533D2*
X1743525D1*
X1856533D2*
X2310175D1*
X1077529Y918076D2*
X1135858D1*
X1264198D2*
X1735858D1*
X1864198D2*
X2310175D1*
X1077529Y893207D2*
X1138740D1*
X1261318D2*
X1738740D1*
X1861318D2*
X2310175D1*
X1077529Y868339D2*
X1154266D1*
X1245839D2*
X1754266D1*
X1845839D2*
X2310175D1*
X1077529Y843470D2*
X1143818D1*
X1256240D2*
X1743818D1*
X1856240D2*
X2310175D1*
X1077529Y818601D2*
X1135908D1*
X1264150D2*
X1735908D1*
X1864150D2*
X2310175D1*
X1077529Y793732D2*
X1138545D1*
X1261513D2*
X1738545D1*
X1861513D2*
X2310175D1*
X1077529Y768864D2*
X1153730D1*
X1246377D2*
X1753730D1*
X1846377D2*
X2310175D1*
X1077529Y743995D2*
X1144160D1*
X1255946D2*
X1744160D1*
X1855946D2*
X2310175D1*
X1077529Y719126D2*
X1135957D1*
X1264101D2*
X1735957D1*
X1864101D2*
X2310175D1*
X1077529Y694257D2*
X1138398D1*
X1261660D2*
X1738398D1*
X1861660D2*
X2310175D1*
X1077529Y669388D2*
X1153193D1*
X1246865D2*
X1753193D1*
X1846865D2*
X2310175D1*
X1077529Y644520D2*
X1144453D1*
X1255605D2*
X1744453D1*
X1855605D2*
X2310175D1*
X1077529Y619651D2*
X1136005D1*
X1264052D2*
X1736005D1*
X1864052D2*
X2310175D1*
X1077529Y594782D2*
X1138251D1*
X1261854D2*
X1738251D1*
X1861854D2*
X2153877D1*
X1077529Y569913D2*
X1152705D1*
X1247402D2*
X1752705D1*
X1847402D2*
X2153877D1*
X1077529Y545045D2*
X2153877D1*
X1077529Y520176D2*
X2153877D1*
X1077529Y495307D2*
X2153877D1*
X1077529Y470438D2*
X2153877D1*
X744239Y2673877D2*
X751018Y2680807D1*
X758130Y2685975D1*
X765962Y2689966D1*
X774323Y2692682D1*
X783005Y2694056D1*
X791795D1*
X800478Y2692682D1*
X808839Y2689966D1*
X814106Y2687411D1*
X814097Y2880256D1*
X804711Y2876270D1*
X796164Y2874219D1*
X787400Y2873529D1*
X778636Y2874219D1*
X770089Y2876270D1*
X761969Y2879635D1*
X754472Y2884227D1*
X747789Y2889937D1*
X742079Y2896621D1*
X737487Y2904117D1*
X734122Y2912238D1*
X732071Y2920785D1*
X731381Y2929549D1*
X732071Y2938312D1*
X734122Y2946860D1*
X737487Y2954980D1*
X742079Y2962476D1*
X747789Y2969160D1*
X754472Y2974870D1*
X761969Y2979462D1*
X770089Y2982827D1*
X778636Y2984878D1*
X787400Y2985568D1*
X796164Y2984878D1*
X804711Y2982827D1*
X812832Y2979462D1*
X814106Y2978749D1*
X814097Y4086017D1*
X810399Y4090280D1*
X810576Y3692486D1*
X810403Y3683731D1*
X810576Y3317919D1*
Y3310622D1*
X809434Y3303417D1*
X807180Y3296479D1*
X803867Y3289978D1*
X799580Y3284076D1*
X794421Y3278917D1*
X788520Y3274630D1*
X782018Y3271318D1*
X775080Y3269063D1*
X767875Y3267921D1*
X760579D1*
X753374Y3269063D1*
X746436Y3271318D1*
X739934Y3274630D1*
X734033Y3278917D1*
X728874Y3284076D1*
X724587Y3289978D1*
X721274Y3296479D1*
X719020Y3303417D1*
X717878Y3310622D1*
X718051Y3319377D1*
X717878Y3685189D1*
X718051Y3693944D1*
X718192Y4122720D1*
X719325Y4129877D1*
X721564Y4136769D1*
X724854Y4143224D1*
X729114Y4149087D1*
X783937Y4204112D1*
X789448Y4208818D1*
X795625Y4212604D1*
X802320Y4215377D1*
X809366Y4217068D1*
X816589Y4217636D1*
X903386Y4217495D1*
X910542Y4216361D1*
X917434Y4214122D1*
X923890Y4210832D1*
X929752Y4206572D1*
X985448Y4151079D1*
X998257Y4138269D1*
X2143484Y4138125D1*
X2150640Y4136991D1*
X2154144Y4136001D1*
X2156387Y4144093D1*
Y4275392D1*
X1859756Y4275360D1*
X1865370Y4265966D1*
X1870508Y4253564D1*
X1873640Y4240510D1*
X1874694Y4227129D1*
X1873640Y4213747D1*
X1870508Y4200693D1*
X1865370Y4188291D1*
X1858356Y4176845D1*
X1849638Y4166638D1*
X1839430Y4157920D1*
X1827984Y4150906D1*
X1815583Y4145768D1*
X1802529Y4142635D1*
X1789147Y4141581D1*
X1775765Y4142635D1*
X1762711Y4145768D1*
X1750310Y4150906D1*
X1738864Y4157920D1*
X1728656Y4166638D1*
X1719938Y4176845D1*
X1712924Y4188291D1*
X1707786Y4200693D1*
X1704654Y4213747D1*
X1703600Y4227129D1*
X1704654Y4240510D1*
X1707786Y4253564D1*
X1712924Y4265966D1*
X1718552Y4275340D1*
X1144034Y4275360D1*
X1149622Y4265966D1*
X1154760Y4253564D1*
X1157892Y4240510D1*
X1158946Y4227129D1*
X1157892Y4213747D1*
X1154760Y4200693D1*
X1149622Y4188291D1*
X1142608Y4176845D1*
X1133890Y4166638D1*
X1123682Y4157920D1*
X1112236Y4150906D1*
X1099835Y4145768D1*
X1086781Y4142635D1*
X1073399Y4141581D1*
X1060017Y4142635D1*
X1046963Y4145768D1*
X1034562Y4150906D1*
X1023115Y4157920D1*
X1012908Y4166638D1*
X1004190Y4176845D1*
X997176Y4188291D1*
X992038Y4200693D1*
X988906Y4213747D1*
X987852Y4227129D1*
X988906Y4240510D1*
X992038Y4253564D1*
X997176Y4265966D1*
X1002804Y4275340D1*
X606222Y4275360D1*
X606068Y4123387D1*
X604860Y4119668D1*
X602560Y4116504D1*
X599396Y4114205D1*
X595677Y4112996D1*
X556222Y4112843D1*
X449923D1*
X449955Y962501D1*
X524516Y962509D1*
X524475Y969251D1*
X1069261D1*
Y960510D1*
X1072026Y958127D1*
X1074070Y954793D1*
X1074983Y950990D1*
X1075021Y449961D1*
X2156417Y449955D1*
X2156541Y595677D1*
X2157749Y599396D1*
X2160049Y602560D1*
X2163213Y604860D1*
X2166932Y606068D1*
X2206387Y606222D1*
X2312686D1*
X2312654Y4119063D1*
X2178133Y4119093D1*
X2227336Y4069717D1*
X2231596Y4063854D1*
X2234886Y4057399D1*
X2237125Y4050507D1*
X2238259Y4043350D1*
X2238400Y3964727D1*
Y2996514D1*
X2245755Y2990046D1*
X2253470Y2981013D1*
X2259676Y2970883D1*
X2264223Y2959908D1*
X2266996Y2948357D1*
X2267928Y2936514D1*
X2266996Y2924672D1*
X2264223Y2913121D1*
X2259676Y2902146D1*
X2253470Y2892016D1*
X2245755Y2882983D1*
X2236722Y2875268D1*
X2226592Y2869062D1*
X2215617Y2864514D1*
X2206457Y2862218D1*
X2267928Y2862219D1*
Y2710810D1*
X2116518D1*
Y2862219D1*
X2177699D1*
X2168829Y2864514D1*
X2157854Y2869062D1*
X2147724Y2875268D1*
X2138692Y2882983D1*
X2130976Y2892016D1*
X2124770Y2902146D1*
X2120223Y2913121D1*
X2117450Y2924672D1*
X2116518Y2936514D1*
X2117450Y2948357D1*
X2120223Y2959908D1*
X2124770Y2970883D1*
X2130976Y2981013D1*
X2138692Y2990046D1*
X2146029Y2996424D1*
X2146046Y3228654D1*
X2140685Y3224787D1*
X2134184Y3221475D1*
X2127245Y3219220D1*
X2120041Y3218079D1*
X2112744D1*
X2109898Y3218416D1*
X2110064Y2668312D1*
Y2661016D1*
X2108923Y2653811D1*
X2106668Y2646873D1*
X2103356Y2640371D1*
X2099068Y2634470D1*
X2093909Y2629311D1*
X2088008Y2625024D1*
X2081507Y2621711D1*
X2074568Y2619457D1*
X2067364Y2618315D1*
X2060067D1*
X2057220Y2618652D1*
X2057215Y2574958D1*
X2082533Y2549615D1*
X2132199Y2549621D1*
X2138692Y2556975D1*
X2147724Y2564690D1*
X2157854Y2570896D1*
X2168829Y2575444D1*
X2180381Y2578217D1*
X2192223Y2579148D1*
X2204066Y2578217D1*
X2215617Y2575444D1*
X2226592Y2570896D1*
X2236722Y2564690D1*
X2245755Y2556975D1*
X2253470Y2547942D1*
X2259676Y2537812D1*
X2264223Y2526837D1*
X2266996Y2515286D1*
X2267928Y2503444D1*
X2266996Y2491601D1*
X2264223Y2480050D1*
X2259676Y2469075D1*
X2253470Y2458945D1*
X2245755Y2449912D1*
X2236722Y2442197D1*
X2226592Y2435991D1*
X2215617Y2431444D1*
X2206457Y2429147D1*
X2267928Y2429148D1*
Y2277739D1*
X2116518D1*
Y2429148D1*
X2177699D1*
X2168829Y2431444D1*
X2157854Y2435991D1*
X2147724Y2442197D1*
X2138692Y2449912D1*
X2132314Y2457249D1*
X2059777Y2457408D1*
X2052621Y2458542D1*
X2045730Y2460781D1*
X2039273Y2464071D1*
X2033411Y2468331D1*
X1978386Y2523154D1*
X1973680Y2528664D1*
X1969894Y2534841D1*
X1967121Y2541537D1*
X1965429Y2548583D1*
X1964861Y2555806D1*
Y3767965D1*
X1883311Y3686583D1*
X1877449Y3682323D1*
X1870993Y3679033D1*
X1864101Y3676794D1*
X1856945Y3675660D1*
X1778322Y3675518D1*
X1573976D1*
X1574412Y3669018D1*
X1573840Y3661745D1*
X1572136Y3654651D1*
X1569345Y3647911D1*
X1565533Y3641692D1*
X1560902Y3636259D1*
X1560807Y1537917D1*
X1559294Y1530311D1*
X1556047Y1523269D1*
X1551247Y1517178D1*
X1260428Y1226361D1*
X1261770Y1217479D1*
Y1207762D1*
X1260249Y1198164D1*
X1257247Y1188923D1*
X1252836Y1180265D1*
X1247123Y1172403D1*
X1240253Y1165533D1*
X1236568Y1162629D1*
X1243823Y1156408D1*
X1250134Y1149020D1*
X1255211Y1140734D1*
X1258930Y1131757D1*
X1261198Y1122308D1*
X1261961Y1112621D1*
X1261198Y1102933D1*
X1258930Y1093484D1*
X1255211Y1084508D1*
X1250134Y1076222D1*
X1243823Y1068833D1*
X1236568Y1062629D1*
X1243823Y1056408D1*
X1250134Y1049020D1*
X1255211Y1040734D1*
X1258930Y1031757D1*
X1261198Y1022308D1*
X1261961Y1012621D1*
X1261198Y1002933D1*
X1258930Y993484D1*
X1255211Y984508D1*
X1250134Y976222D1*
X1243823Y968833D1*
X1236568Y962629D1*
X1243823Y956408D1*
X1250134Y949020D1*
X1255211Y940734D1*
X1258930Y931757D1*
X1261198Y922308D1*
X1261961Y912621D1*
X1261198Y902933D1*
X1258930Y893484D1*
X1255211Y884508D1*
X1250134Y876222D1*
X1243823Y868833D1*
X1236568Y862629D1*
X1243823Y856408D1*
X1250134Y849020D1*
X1255211Y840734D1*
X1258930Y831757D1*
X1261198Y822308D1*
X1261961Y812621D1*
X1261198Y802933D1*
X1258930Y793484D1*
X1255211Y784508D1*
X1250134Y776222D1*
X1243823Y768833D1*
X1236568Y762629D1*
X1243823Y756408D1*
X1250134Y749020D1*
X1255211Y740734D1*
X1258930Y731757D1*
X1261198Y722308D1*
X1261961Y712621D1*
X1261198Y702933D1*
X1258930Y693484D1*
X1255211Y684508D1*
X1250134Y676222D1*
X1243823Y668833D1*
X1236568Y662629D1*
X1243823Y656408D1*
X1250134Y649020D1*
X1255211Y640734D1*
X1258930Y631757D1*
X1261198Y622308D1*
X1261961Y612621D1*
X1261198Y602933D1*
X1258930Y593484D1*
X1255211Y584508D1*
X1250134Y576222D1*
X1243823Y568833D1*
X1236434Y562522D1*
X1228148Y557445D1*
X1219172Y553726D1*
X1209723Y551458D1*
X1200035Y550696D1*
X1190348Y551458D1*
X1180899Y553726D1*
X1171923Y557445D1*
X1163636Y562522D1*
X1156248Y568833D1*
X1149937Y576222D1*
X1144860Y584508D1*
X1141140Y593484D1*
X1138873Y602933D1*
X1138110Y612621D1*
X1138873Y622308D1*
X1141140Y631757D1*
X1144860Y640734D1*
X1149937Y649020D1*
X1156248Y656408D1*
X1163503Y662613D1*
X1156248Y668833D1*
X1149937Y676222D1*
X1144860Y684508D1*
X1141140Y693484D1*
X1138873Y702933D1*
X1138110Y712621D1*
X1138873Y722308D1*
X1141140Y731757D1*
X1144860Y740734D1*
X1149937Y749020D1*
X1156248Y756408D1*
X1163503Y762613D1*
X1156248Y768833D1*
X1149937Y776222D1*
X1144860Y784508D1*
X1141140Y793484D1*
X1138873Y802933D1*
X1138110Y812621D1*
X1138873Y822308D1*
X1141140Y831757D1*
X1144860Y840734D1*
X1149937Y849020D1*
X1156248Y856408D1*
X1163503Y862613D1*
X1156248Y868833D1*
X1149937Y876222D1*
X1144860Y884508D1*
X1141140Y893484D1*
X1138873Y902933D1*
X1138110Y912621D1*
X1138873Y922308D1*
X1141140Y931757D1*
X1144860Y940734D1*
X1149937Y949020D1*
X1156248Y956408D1*
X1163503Y962613D1*
X1156248Y968833D1*
X1149937Y976222D1*
X1144860Y984508D1*
X1141140Y993484D1*
X1138873Y1002933D1*
X1138110Y1012621D1*
X1138873Y1022308D1*
X1141140Y1031757D1*
X1144860Y1040734D1*
X1149937Y1049020D1*
X1156248Y1056408D1*
X1163503Y1062613D1*
X1156248Y1068833D1*
X1149937Y1076222D1*
X1147668Y1079617D1*
X734651Y1079734D1*
X727045Y1081247D1*
X720003Y1084493D1*
X713912Y1089294D1*
X686171Y1117181D1*
X681862Y1123629D1*
X679177Y1130904D1*
X678266Y1138605D1*
Y2720001D1*
X673642Y2725448D1*
X669829Y2731667D1*
X667038Y2738407D1*
X665335Y2745501D1*
X664762Y2752774D1*
X665335Y2760047D1*
X667038Y2767142D1*
X669829Y2773882D1*
X673642Y2780101D1*
X678379Y2785650D1*
X683928Y2790387D1*
X690147Y2794199D1*
X696887Y2796991D1*
X703982Y2798694D1*
X711255Y2799266D1*
X718528Y2798694D1*
X725622Y2796991D1*
X732362Y2794199D1*
X738581Y2790387D1*
X744130Y2785650D1*
X748867Y2780101D1*
X752680Y2773882D1*
X755471Y2767142D1*
X757175Y2760047D1*
X757747Y2752774D1*
X757175Y2745501D1*
X755471Y2738407D1*
X752680Y2731667D1*
X748867Y2725448D1*
X744236Y2720014D1*
X744243Y2673917D1*
X2129000Y1405526D2*
X2267909D1*
Y1254117D1*
X2116500D1*
Y1405526D1*
X2129000D1*
X1217261Y2074546D2*
X1248315D1*
X1248285Y2371543D1*
X1240386Y2368117D1*
X1233291Y2366413D1*
X1226175Y2365848D1*
X1177357Y2317018D1*
X1185887Y2315757D1*
X1192825Y2313503D1*
X1199327Y2310190D1*
X1205228Y2305903D1*
X1210387Y2300744D1*
X1214675Y2294843D1*
X1217987Y2288341D1*
X1220241Y2281403D1*
X1221383Y2274198D1*
Y2266902D1*
X1220241Y2259697D1*
X1217987Y2252759D1*
X1214675Y2246257D1*
X1210387Y2240356D1*
X1208016Y2237790D1*
X1208022Y2126654D1*
X1212647Y2121223D1*
X1216459Y2115004D1*
X1219251Y2108264D1*
X1220954Y2101169D1*
X1221526Y2093896D1*
X1220954Y2086623D1*
X1219251Y2079529D1*
X1217265Y2074538D1*
X1248287Y1773881D2*
X1243823Y1768833D1*
X1236434Y1762522D1*
X1228148Y1757445D1*
X1219172Y1753726D1*
X1209723Y1751458D1*
X1200035Y1750696D1*
X1190348Y1751458D1*
X1180899Y1753726D1*
X1171923Y1757445D1*
X1164600Y1761878D1*
X1164601Y1663387D1*
X1171923Y1667797D1*
X1180899Y1671516D1*
X1190348Y1673783D1*
X1200035Y1674546D1*
X1209723Y1673783D1*
X1213728Y1672987D1*
X1248283Y1707521D1*
X1248285Y1773790D1*
X1260402Y1626314D2*
X1261396Y1620629D1*
X1348273Y1707510D1*
X1348285Y3737071D1*
X1342560Y3740774D1*
X1334701Y3747486D1*
X1331287Y3751180D1*
X1324047Y3743976D1*
X1315686Y3737902D1*
X1314259Y3737101D1*
X1314160Y1691270D1*
X1312647Y1683664D1*
X1309400Y1676622D1*
X1304600Y1670531D1*
X1260440Y1626373D1*
X1261770Y1507762D2*
X1260249Y1498164D1*
X1257247Y1488923D1*
X1252836Y1480265D1*
X1247123Y1472403D1*
X1240253Y1465533D1*
X1236568Y1462629D1*
X1243823Y1456408D1*
X1250134Y1449020D1*
X1255211Y1440734D1*
X1258930Y1431757D1*
X1261198Y1422308D1*
X1261961Y1412621D1*
X1261198Y1402933D1*
X1258930Y1393484D1*
X1255211Y1384508D1*
X1250134Y1376222D1*
X1243823Y1368833D1*
X1236568Y1362629D1*
X1243823Y1356408D1*
X1250134Y1349020D1*
X1255211Y1340734D1*
X1258930Y1331757D1*
X1261198Y1322308D1*
X1261396Y1320629D1*
X1494942Y1554180D1*
X1494932Y2378738D1*
X1488428Y2378322D1*
X1481155Y2378894D1*
X1474060Y2380597D1*
X1467320Y2383388D1*
X1461101Y2387201D1*
X1455552Y2391938D1*
X1450815Y2397487D1*
X1447003Y2403706D1*
X1444211Y2410446D1*
X1442508Y2417541D1*
X1441936Y2424814D1*
X1442508Y2432087D1*
X1444211Y2439181D1*
X1447003Y2445921D1*
X1450815Y2452140D1*
X1452713Y2454549D1*
X1448787Y2460009D1*
X1445475Y2466510D1*
X1443220Y2473449D1*
X1442079Y2480654D1*
Y2487950D1*
X1443220Y2495155D1*
X1445475Y2502093D1*
X1448787Y2508594D1*
X1453075Y2514496D1*
X1455446Y2517062D1*
X1455440Y3481518D1*
X1450815Y3486908D1*
X1447003Y3493127D1*
X1444211Y3499867D1*
X1442508Y3506962D1*
X1441936Y3514235D1*
X1442508Y3521508D1*
X1444211Y3528602D1*
X1447003Y3535343D1*
X1450815Y3541562D1*
X1455552Y3547110D1*
X1461101Y3551848D1*
X1467320Y3555660D1*
X1474060Y3558451D1*
X1481155Y3560155D1*
X1488428Y3560727D1*
X1494923Y3560247D1*
X1494932Y3636257D1*
X1490307Y3641692D1*
X1486495Y3647911D1*
X1483703Y3654651D1*
X1482000Y3661745D1*
X1481428Y3669018D1*
X1481908Y3675513D1*
X1472706Y3675518D1*
X1453638Y3655962D1*
X1448089Y3651224D1*
X1441870Y3647412D1*
X1435130Y3644621D1*
X1428035Y3642917D1*
X1420762Y3642345D1*
X1414268Y3642825D1*
X1414160Y1691270D1*
X1412647Y1683664D1*
X1409400Y1676622D1*
X1404600Y1670531D1*
X1260450Y1526383D1*
X1261770Y1517479D1*
Y1507762D1*
X1147668Y1345625D2*
X1152948Y1352839D1*
X1159818Y1359709D1*
X1163503Y1362629D1*
X1156248Y1368833D1*
X1149937Y1376222D1*
X1147668Y1379617D1*
X896466Y1379734D1*
X888860Y1381247D1*
X881810Y1384499D1*
X880073Y1381282D1*
Y1352230D1*
X886693Y1345609D1*
X1147630D1*
X1147668Y1145625D2*
X1152948Y1152839D1*
X1159818Y1159709D1*
X1163503Y1162629D1*
X1156248Y1168833D1*
X1149937Y1176222D1*
X1144860Y1184508D1*
X1141140Y1193484D1*
X1138873Y1202933D1*
X1138110Y1212621D1*
X1138873Y1222308D1*
X1141140Y1231757D1*
X1144860Y1240734D1*
X1149937Y1249020D1*
X1156248Y1256408D1*
X1163503Y1262629D1*
X1156248Y1268833D1*
X1149937Y1276222D1*
X1147668Y1279617D1*
X870482Y1279734D1*
X862875Y1281247D1*
X855833Y1284493D1*
X849743Y1289294D1*
X822001Y1317181D1*
X817693Y1323629D1*
X815008Y1330904D1*
X814097Y1338605D1*
X814106Y2589009D1*
X808839Y2586454D1*
X800478Y2583738D1*
X791795Y2582364D1*
X783005D1*
X774323Y2583738D1*
X765962Y2586454D1*
X758130Y2590445D1*
X751018Y2595613D1*
X744239Y2602543D1*
X744243Y1152238D1*
X750862Y1145609D1*
X1147639D1*
X1861770Y607762D2*
X1860249Y598164D1*
X1857247Y588923D1*
X1852836Y580265D1*
X1847123Y572403D1*
X1840253Y565533D1*
X1832391Y559820D1*
X1823734Y555409D1*
X1814492Y552407D1*
X1804894Y550886D1*
X1795177D1*
X1785579Y552407D1*
X1776337Y555409D1*
X1767680Y559820D1*
X1759818Y565533D1*
X1752948Y572403D1*
X1747235Y580265D1*
X1742824Y588923D1*
X1739822Y598164D1*
X1738301Y607762D1*
Y617479D1*
X1739822Y627077D1*
X1742824Y636319D1*
X1747235Y644976D1*
X1752948Y652839D1*
X1759818Y659709D1*
X1763503Y662613D1*
X1756248Y668833D1*
X1749937Y676222D1*
X1744860Y684508D1*
X1741140Y693484D1*
X1738873Y702933D1*
X1738110Y712621D1*
X1738873Y722308D1*
X1741140Y731757D1*
X1744860Y740734D1*
X1749937Y749020D1*
X1756248Y756408D1*
X1763503Y762613D1*
X1756248Y768833D1*
X1749937Y776222D1*
X1744860Y784508D1*
X1741140Y793484D1*
X1738873Y802933D1*
X1738110Y812621D1*
X1738873Y822308D1*
X1741140Y831757D1*
X1744860Y840734D1*
X1749937Y849020D1*
X1756248Y856408D1*
X1763503Y862613D1*
X1756248Y868833D1*
X1749937Y876222D1*
X1744860Y884508D1*
X1741140Y893484D1*
X1738873Y902933D1*
X1738110Y912621D1*
X1738873Y922308D1*
X1741140Y931757D1*
X1744860Y940734D1*
X1749937Y949020D1*
X1756248Y956408D1*
X1763503Y962613D1*
X1756248Y968833D1*
X1749937Y976222D1*
X1744860Y984508D1*
X1741140Y993484D1*
X1738873Y1002933D1*
X1738110Y1012621D1*
X1738873Y1022308D1*
X1741140Y1031757D1*
X1744860Y1040734D1*
X1749937Y1049020D1*
X1756248Y1056408D1*
X1763503Y1062613D1*
X1756248Y1068833D1*
X1749937Y1076222D1*
X1744860Y1084508D1*
X1741140Y1093484D1*
X1738873Y1102933D1*
X1738110Y1112621D1*
X1738873Y1122308D1*
X1741140Y1131757D1*
X1744860Y1140734D1*
X1749937Y1149020D1*
X1756248Y1156408D1*
X1763503Y1162613D1*
X1756248Y1168833D1*
X1749937Y1176222D1*
X1744860Y1184508D1*
X1741140Y1193484D1*
X1738873Y1202933D1*
X1738110Y1212621D1*
X1738873Y1222308D1*
X1741140Y1231757D1*
X1744860Y1240734D1*
X1749937Y1249020D1*
X1756248Y1256408D1*
X1763503Y1262613D1*
X1756248Y1268833D1*
X1749937Y1276222D1*
X1744860Y1284508D1*
X1741140Y1293484D1*
X1738873Y1302933D1*
X1738110Y1312621D1*
X1738873Y1322308D1*
X1741140Y1331757D1*
X1744860Y1340734D1*
X1749937Y1349020D1*
X1756248Y1356408D1*
X1763503Y1362613D1*
X1756248Y1368833D1*
X1749937Y1376222D1*
X1744860Y1384508D1*
X1741140Y1393484D1*
X1738873Y1402933D1*
X1738110Y1412621D1*
X1738873Y1422308D1*
X1741140Y1431757D1*
X1744860Y1440734D1*
X1749937Y1449020D1*
X1756248Y1456408D1*
X1763503Y1462613D1*
X1756248Y1468833D1*
X1749937Y1476222D1*
X1744860Y1484508D1*
X1741140Y1493484D1*
X1738873Y1502933D1*
X1738110Y1512621D1*
X1738873Y1522308D1*
X1741140Y1531757D1*
X1744860Y1540734D1*
X1749937Y1549020D1*
X1756248Y1556408D1*
X1763503Y1562613D1*
X1756248Y1568833D1*
X1749937Y1576222D1*
X1744860Y1584508D1*
X1741140Y1593484D1*
X1738873Y1602933D1*
X1738110Y1612621D1*
X1738873Y1622308D1*
X1741140Y1631757D1*
X1744860Y1640734D1*
X1749937Y1649020D1*
X1756248Y1656408D1*
X1763503Y1662613D1*
X1756248Y1668833D1*
X1749937Y1676222D1*
X1744860Y1684508D1*
X1741140Y1693484D1*
X1738873Y1702933D1*
X1738110Y1712621D1*
X1738873Y1722308D1*
X1739669Y1726314D1*
X1593584Y1872564D1*
X1589276Y1879012D1*
X1586591Y1886287D1*
X1585680Y1893988D1*
Y2451556D1*
X1581055Y2456975D1*
X1577243Y2463194D1*
X1574451Y2469934D1*
X1572748Y2477029D1*
X1572176Y2484302D1*
X1572748Y2491575D1*
X1574451Y2498669D1*
X1577243Y2505409D1*
X1581055Y2511629D1*
X1585793Y2517177D1*
X1591341Y2521915D1*
X1597560Y2525727D1*
X1604301Y2528518D1*
X1611395Y2530222D1*
X1618668Y2530794D1*
X1626822Y2530046D1*
X1626661Y3266811D1*
Y3274108D1*
X1627803Y3281312D1*
X1630058Y3288251D1*
X1633370Y3294752D1*
X1637657Y3300654D1*
X1642816Y3305812D1*
X1648718Y3310100D1*
X1655219Y3313412D1*
X1662157Y3315667D1*
X1669362Y3316808D1*
X1676659D1*
X1683864Y3315667D1*
X1690802Y3313412D1*
X1697303Y3310100D1*
X1703205Y3305812D1*
X1708364Y3300654D1*
X1712651Y3294752D1*
X1715963Y3288251D1*
X1718218Y3281312D1*
X1719360Y3274108D1*
X1719186Y3265353D1*
X1719188Y2158790D1*
X1803546Y2074415D1*
X1809723Y2073783D1*
X1819172Y2071516D1*
X1820579Y2070996D1*
X2021906Y2071171D1*
X2029202D1*
X2036407Y2070029D1*
X2043345Y2067774D1*
X2049846Y2064462D1*
X2055748Y2060175D1*
X2060907Y2055016D1*
X2065194Y2049114D1*
X2068507Y2042613D1*
X2070761Y2035675D1*
X2071903Y2028470D1*
Y2021173D1*
X2070761Y2013969D1*
X2068507Y2007030D1*
X2065194Y2000529D1*
X2060907Y1994627D1*
X2055748Y1989469D1*
X2049846Y1985181D1*
X2043345Y1981869D1*
X2036407Y1979614D1*
X2029202Y1978472D1*
X2020448Y1978646D1*
X1851774Y1978644D1*
X1847123Y1972403D1*
X1840253Y1965533D1*
X1832391Y1959820D1*
X1823734Y1955409D1*
X1814492Y1952407D1*
X1804894Y1950886D1*
X1795177D1*
X1785579Y1952407D1*
X1776337Y1955409D1*
X1767680Y1959820D1*
X1759818Y1965533D1*
X1752948Y1972403D1*
X1747235Y1980265D1*
X1742824Y1988923D1*
X1739822Y1998164D1*
X1738301Y2007762D1*
X1738248Y2009110D1*
X1651684Y2095668D1*
X1651656Y1907690D1*
X1738634Y1820675D1*
X1739822Y1827077D1*
X1742824Y1836319D1*
X1747235Y1844976D1*
X1752948Y1852839D1*
X1759818Y1859709D1*
X1767680Y1865421D1*
X1776337Y1869832D1*
X1785579Y1872835D1*
X1795177Y1874356D1*
X1804894D1*
X1814492Y1872835D1*
X1823734Y1869832D1*
X1832391Y1865421D1*
X1840253Y1859709D1*
X1847123Y1852839D1*
X1852836Y1844976D1*
X1857247Y1836319D1*
X1860249Y1827077D1*
X1861770Y1817479D1*
Y1807762D1*
X1860249Y1798164D1*
X1857247Y1788923D1*
X1852836Y1780265D1*
X1847123Y1772403D1*
X1840253Y1765533D1*
X1836568Y1762629D1*
X1843823Y1756408D1*
X1850134Y1749020D1*
X1855211Y1740734D1*
X1858930Y1731757D1*
X1861198Y1722308D1*
X1861961Y1712621D1*
X1861198Y1702933D1*
X1858930Y1693484D1*
X1855211Y1684508D1*
X1850134Y1676222D1*
X1843823Y1668833D1*
X1836568Y1662629D1*
X1843823Y1656408D1*
X1850134Y1649020D1*
X1855211Y1640734D1*
X1858930Y1631757D1*
X1861198Y1622308D1*
X1861961Y1612621D1*
X1861198Y1602933D1*
X1858930Y1593484D1*
X1855211Y1584508D1*
X1850134Y1576222D1*
X1843823Y1568833D1*
X1836568Y1562629D1*
X1843823Y1556408D1*
X1850134Y1549020D1*
X1855211Y1540734D1*
X1858930Y1531757D1*
X1861198Y1522308D1*
X1861961Y1512621D1*
X1861198Y1502933D1*
X1858930Y1493484D1*
X1855211Y1484508D1*
X1850134Y1476222D1*
X1843823Y1468833D1*
X1836568Y1462629D1*
X1843823Y1456408D1*
X1850134Y1449020D1*
X1855211Y1440734D1*
X1858930Y1431757D1*
X1861198Y1422308D1*
X1861961Y1412621D1*
X1861198Y1402933D1*
X1858930Y1393484D1*
X1855211Y1384508D1*
X1850134Y1376222D1*
X1843823Y1368833D1*
X1836568Y1362629D1*
X1843823Y1356408D1*
X1850134Y1349020D1*
X1855211Y1340734D1*
X1858930Y1331757D1*
X1861198Y1322308D1*
X1861396Y1320629D1*
X2008832Y1468070D1*
X2008942Y1768827D1*
X2010455Y1776433D1*
X2013702Y1783475D1*
X2018503Y1789566D1*
X2120736Y1891799D1*
X2118610Y1898959D1*
X2116752Y1910693D1*
Y1922572D1*
X2118610Y1934306D1*
X2122281Y1945604D1*
X2127675Y1956188D1*
X2134656Y1965799D1*
X2143056Y1974199D1*
X2152668Y1981181D1*
X2163252Y1986575D1*
X2174550Y1990245D1*
X2186283Y1992104D1*
X2198163D1*
X2209896Y1990245D1*
X2221194Y1986575D1*
X2231778Y1981181D1*
X2241390Y1974199D1*
X2249790Y1965799D1*
X2256772Y1956188D1*
X2262165Y1945604D1*
X2265836Y1934306D1*
X2267694Y1922572D1*
Y1910693D1*
X2265836Y1898959D1*
X2262165Y1887661D1*
X2256772Y1877077D1*
X2249790Y1867466D1*
X2241390Y1859066D1*
X2231778Y1852084D1*
X2221194Y1846690D1*
X2209896Y1843020D1*
X2206457Y1842336D1*
X2267928Y1842337D1*
Y1690928D1*
X2116518D1*
Y1794297D1*
X2074783Y1752541D1*
X2074717Y1451827D1*
X2073203Y1444220D1*
X2069957Y1437178D1*
X2065156Y1431088D1*
X1860446Y1226379D1*
X1861770Y1217479D1*
Y1207762D1*
X1860249Y1198164D1*
X1857247Y1188923D1*
X1852836Y1180265D1*
X1847123Y1172403D1*
X1840253Y1165533D1*
X1836568Y1162629D1*
X1843823Y1156408D1*
X1850134Y1149020D1*
X1855211Y1140734D1*
X1858930Y1131757D1*
X1861198Y1122308D1*
X1861961Y1112621D1*
X1861198Y1102933D1*
X1858930Y1093484D1*
X1855211Y1084508D1*
X1850134Y1076222D1*
X1843823Y1068833D1*
X1836568Y1062629D1*
X1843823Y1056408D1*
X1850134Y1049020D1*
X1855211Y1040734D1*
X1858930Y1031757D1*
X1861198Y1022308D1*
X1861961Y1012621D1*
X1861198Y1002933D1*
X1858930Y993484D1*
X1855211Y984508D1*
X1850134Y976222D1*
X1843823Y968833D1*
X1836568Y962629D1*
X1843823Y956408D1*
X1850134Y949020D1*
X1855211Y940734D1*
X1858930Y931757D1*
X1861198Y922308D1*
X1861961Y912621D1*
X1861198Y902933D1*
X1858930Y893484D1*
X1855211Y884508D1*
X1850134Y876222D1*
X1843823Y868833D1*
X1836568Y862629D1*
X1843823Y856408D1*
X1850134Y849020D1*
X1855211Y840734D1*
X1858930Y831757D1*
X1861198Y822308D1*
X1861961Y812621D1*
X1861198Y802933D1*
X1858930Y793484D1*
X1855211Y784508D1*
X1850134Y776222D1*
X1843823Y768833D1*
X1836568Y762629D1*
X1843823Y756408D1*
X1850134Y749020D1*
X1855211Y740734D1*
X1858930Y731757D1*
X1861198Y722308D1*
X1861961Y712621D1*
X1861198Y702933D1*
X1858930Y693484D1*
X1855211Y684508D1*
X1850134Y676222D1*
X1843823Y668833D1*
X1836568Y662629D1*
X1843823Y656408D1*
X1850134Y649020D1*
X1855211Y640734D1*
X1858930Y631757D1*
X1861198Y622308D1*
X1861961Y612621D1*
X1861770Y607762D1*
X1090577Y3942337D2*
X1084331Y3947887D1*
X984056Y3947881D1*
X958730Y3922563D1*
X958735Y3911178D1*
X982165Y3934437D1*
X988613Y3938745D1*
X995888Y3941430D1*
X1003589Y3942341D1*
X1090454D1*
X1771810Y4045903D2*
X1778215Y4040228D1*
X2067654Y4040093D1*
X2074810Y4038959D1*
X2081701Y4036720D1*
X2088157Y4033430D1*
X2094020Y4029171D1*
X2146077Y3977315D1*
X2146046Y4020646D1*
X2120728Y4045917D1*
X1771844Y4045912D1*
X1819281Y2532591D2*
X1818139Y2525386D1*
X1815885Y2518448D1*
X1812572Y2511946D1*
X1808285Y2506045D1*
X1803126Y2500886D1*
X1797224Y2496598D1*
X1790723Y2493286D1*
X1783785Y2491031D1*
X1776580Y2489890D1*
X1769283D1*
X1762079Y2491031D1*
X1755140Y2493286D1*
X1748639Y2496598D1*
X1742738Y2500886D1*
X1737579Y2506045D1*
X1733291Y2511946D1*
X1729979Y2518448D1*
X1727724Y2525386D1*
X1726583Y2532591D1*
X1726756Y2541345D1*
X1726896Y3215689D1*
X1728030Y3222845D1*
X1730269Y3229736D1*
X1733559Y3236193D1*
X1737819Y3242055D1*
X1792642Y3297080D1*
X1798152Y3301786D1*
X1804329Y3305572D1*
X1811025Y3308345D1*
X1818071Y3310037D1*
X1825294Y3310605D1*
X1918129Y3310920D1*
X1925402Y3310348D1*
X1932496Y3308644D1*
X1939236Y3305853D1*
X1945455Y3302041D1*
X1951004Y3297303D1*
X1955741Y3291755D1*
X1959554Y3285535D1*
X1962345Y3278795D1*
X1964049Y3271701D1*
X1964621Y3264428D1*
X1964049Y3257155D1*
X1962345Y3250060D1*
X1959554Y3243320D1*
X1956320Y3237966D1*
X1959554Y3232543D1*
X1962345Y3225803D1*
X1964049Y3218709D1*
X1964621Y3211436D1*
X1964306Y3198936D1*
X1964621Y2966239D1*
X1964049Y2958966D1*
X1962345Y2951871D1*
X1959554Y2945131D1*
X1955741Y2938912D1*
X1951004Y2933364D1*
X1945455Y2928626D1*
X1939236Y2924814D1*
X1932496Y2922022D1*
X1925402Y2920319D1*
X1918129Y2919747D1*
X1910856Y2920319D1*
X1903761Y2922022D1*
X1897021Y2924814D1*
X1890802Y2928626D1*
X1885253Y2933364D1*
X1880516Y2938912D1*
X1876703Y2945131D1*
X1873912Y2951871D1*
X1872209Y2958966D1*
X1871636Y2966239D1*
X1871951Y2978739D1*
X1871636Y3211436D1*
X1872154Y3218241D1*
X1844448Y3218251D1*
X1819104Y3192933D1*
X1819281Y2539887D1*
Y2532591D1*
X1010587Y2785534D2*
X1015218Y2780101D1*
X1019030Y2773882D1*
X1021822Y2767142D1*
X1023525Y2760047D1*
X1024097Y2752774D1*
X1023525Y2745501D1*
X1021822Y2738407D1*
X1019030Y2731667D1*
X1015218Y2725448D1*
X1010480Y2719899D1*
X1004932Y2715161D1*
X998713Y2711349D1*
X991972Y2708558D1*
X984878Y2706854D1*
X977605Y2706282D1*
X970332Y2706854D1*
X963238Y2708558D1*
X956497Y2711349D1*
X950278Y2715161D1*
X944730Y2719899D1*
X939992Y2725448D1*
X936180Y2731667D1*
X933388Y2738407D1*
X931685Y2745501D1*
X931113Y2752774D1*
X931685Y2760047D1*
X933388Y2767142D1*
X936180Y2773882D1*
X939992Y2780101D1*
X944623Y2785534D1*
X944617Y3655167D1*
X939885Y3651224D1*
X933665Y3647412D1*
X926925Y3644621D1*
X919831Y3642917D1*
X912558Y3642345D1*
X906063Y3642825D1*
X906058Y2138504D1*
X909231Y2142199D1*
X1179533Y2412490D1*
X1180098Y2419606D1*
X1181802Y2426701D1*
X1184593Y2433441D1*
X1188406Y2439660D1*
X1193143Y2445209D1*
X1198692Y2449946D1*
X1204911Y2453759D1*
X1211651Y2456550D1*
X1218745Y2458253D1*
X1226018Y2458825D1*
X1233291Y2458253D1*
X1240386Y2456550D1*
X1248282Y2453110D1*
X1248287Y3737101D1*
X1242560Y3740774D1*
X1234701Y3747486D1*
X1231259Y3751180D1*
X1227444Y3747115D1*
X1227623Y3639808D1*
Y3632512D1*
X1226482Y3625307D1*
X1224227Y3618369D1*
X1220915Y3611867D1*
X1216627Y3605966D1*
X1211469Y3600807D1*
X1205567Y3596520D1*
X1199066Y3593207D1*
X1192127Y3590953D1*
X1184923Y3589811D1*
X1177626D1*
X1170421Y3590953D1*
X1163483Y3593207D1*
X1156982Y3596520D1*
X1151080Y3600807D1*
X1145921Y3605966D1*
X1141634Y3611867D1*
X1138322Y3618369D1*
X1136067Y3625307D1*
X1134925Y3632512D1*
X1135098Y3641266D1*
X1135096Y3747049D1*
X1127990Y3755345D1*
X1122589Y3764157D1*
X1118634Y3773705D1*
X1116222Y3783755D1*
X1115411Y3794058D1*
X1116222Y3804361D1*
X1118634Y3814411D1*
X1122589Y3823958D1*
X1127990Y3832770D1*
X1134701Y3840630D1*
X1142560Y3847341D1*
X1151373Y3852741D1*
X1160920Y3856697D1*
X1170970Y3859109D1*
X1181273Y3859920D1*
X1191576Y3859109D1*
X1201626Y3856697D1*
X1211173Y3852741D1*
X1219986Y3847341D1*
X1227845Y3840630D1*
X1231259Y3836936D1*
X1238499Y3844139D1*
X1246860Y3850214D1*
X1256068Y3854907D1*
X1265898Y3858100D1*
X1276105Y3859717D1*
X1286441D1*
X1296648Y3858100D1*
X1306478Y3854907D1*
X1315686Y3850214D1*
X1324047Y3844139D1*
X1331259Y3836936D1*
X1338499Y3844139D1*
X1346860Y3850214D1*
X1356068Y3854907D1*
X1365898Y3858100D1*
X1376105Y3859717D1*
X1386441D1*
X1396648Y3858100D1*
X1406478Y3854907D1*
X1415686Y3850214D1*
X1424047Y3844139D1*
X1431259Y3836936D1*
X1438499Y3844139D1*
X1446860Y3850214D1*
X1456068Y3854907D1*
X1465898Y3858100D1*
X1476105Y3859717D1*
X1486441D1*
X1496648Y3858100D1*
X1506478Y3854907D1*
X1515686Y3850214D1*
X1524047Y3844139D1*
X1531259Y3836936D1*
X1538499Y3844139D1*
X1546860Y3850214D1*
X1556068Y3854907D1*
X1565898Y3858100D1*
X1576105Y3859717D1*
X1586441D1*
X1596648Y3858100D1*
X1606478Y3854907D1*
X1615686Y3850214D1*
X1624047Y3844139D1*
X1631259Y3836936D1*
X1638499Y3844139D1*
X1646860Y3850214D1*
X1656068Y3854907D1*
X1665898Y3858100D1*
X1676105Y3859717D1*
X1686441D1*
X1696648Y3858100D1*
X1706478Y3854907D1*
X1715686Y3850214D1*
X1724047Y3844139D1*
X1731354Y3836832D1*
X1737429Y3828471D1*
X1742122Y3819262D1*
X1745315Y3809433D1*
X1746932Y3799226D1*
Y3788890D1*
X1745315Y3778682D1*
X1742122Y3768853D1*
X1741673Y3767881D1*
X1834236Y3767873D1*
X1931860Y3865336D1*
X1937722Y3869596D1*
X1944177Y3872886D1*
X1951070Y3875125D1*
X1958226Y3876259D1*
X2036849Y3876400D1*
X2067352Y3876256D1*
X2070215Y3876928D1*
Y3922583D1*
X2044898Y3947886D1*
X1778239Y3947881D1*
X1769986Y3940774D1*
X1761173Y3935374D1*
X1751626Y3931419D1*
X1741576Y3929007D1*
X1731273Y3928196D1*
X1720970Y3929007D1*
X1710920Y3931419D1*
X1701373Y3935374D1*
X1692560Y3940774D1*
X1684701Y3947486D1*
X1681287Y3951180D1*
X1674047Y3943976D1*
X1665686Y3937902D1*
X1656478Y3933209D1*
X1646648Y3930016D1*
X1636441Y3928399D1*
X1626105D1*
X1615898Y3930016D1*
X1606068Y3933209D1*
X1596860Y3937902D1*
X1588499Y3943976D1*
X1581287Y3951180D1*
X1574047Y3943976D1*
X1565686Y3937902D1*
X1556478Y3933209D1*
X1546648Y3930016D1*
X1536441Y3928399D1*
X1526105D1*
X1515898Y3930016D1*
X1506068Y3933209D1*
X1496860Y3937902D1*
X1488499Y3943976D1*
X1481192Y3951283D1*
X1475117Y3959644D1*
X1470424Y3968853D1*
X1467231Y3978682D1*
X1465614Y3988890D1*
Y3999226D1*
X1467231Y4009433D1*
X1467675Y4011008D1*
X1458747Y4019932D1*
X1391799Y4019928D1*
X1393912Y4014411D1*
X1396324Y4004361D1*
X1397135Y3994058D1*
X1396324Y3983755D1*
X1393912Y3973705D1*
X1389957Y3964157D1*
X1384556Y3955345D1*
X1377845Y3947486D1*
X1369986Y3940774D1*
X1361173Y3935374D1*
X1351626Y3931419D1*
X1341576Y3929007D1*
X1331273Y3928196D1*
X1320970Y3929007D1*
X1314323Y3930459D1*
X1267992Y3884269D1*
X1261545Y3879961D1*
X1254269Y3877276D1*
X1246568Y3876365D1*
X1017223D1*
X1010593Y3869745D1*
Y2785566D1*
X1087777Y1445609D2*
X1085693Y1453734D1*
X1085121Y1461007D1*
X1085693Y1468280D1*
X1087396Y1475374D1*
X1090188Y1482114D1*
X1094000Y1488333D1*
X1098631Y1493766D1*
X1098726Y1846786D1*
X1100239Y1854392D1*
X1103486Y1861434D1*
X1108286Y1867525D1*
X1139669Y1898928D1*
X1138675Y1904613D1*
X1004358Y1770291D1*
X1004392Y1584331D1*
X1009017Y1578849D1*
X1012829Y1572630D1*
X1015621Y1565890D1*
X1017324Y1558795D1*
X1017896Y1551522D1*
X1017324Y1544249D1*
X1015621Y1537155D1*
X1012829Y1530415D1*
X1009017Y1524196D1*
X1004280Y1518647D1*
X998731Y1513909D1*
X992512Y1510097D1*
X985772Y1507306D1*
X978677Y1505602D1*
X971404Y1505030D1*
X964131Y1505602D1*
X957037Y1507306D1*
X950297Y1510097D1*
X944077Y1513909D1*
X938529Y1518647D1*
X933791Y1524196D1*
X929979Y1530415D1*
X927188Y1537155D1*
X925484Y1544249D1*
X924912Y1551522D1*
X925484Y1558795D1*
X927188Y1565890D1*
X929979Y1572630D1*
X933791Y1578849D1*
X938423Y1584282D1*
X938517Y1786577D1*
X940030Y1794184D1*
X943277Y1801226D1*
X948077Y1807316D1*
X1138110Y1997327D1*
Y2065634D1*
X1133609Y2072789D1*
X1130818Y2079529D1*
X1129114Y2086623D1*
X1128542Y2093896D1*
X1129114Y2101169D1*
X1130818Y2108264D1*
X1133609Y2115004D1*
X1137421Y2121223D1*
X1142052Y2126656D1*
X1142046Y2237793D1*
X1137421Y2243223D1*
X1133609Y2249442D1*
X1130818Y2256182D1*
X1129114Y2263277D1*
X1128631Y2268285D1*
X965570Y2105232D1*
X965546Y2066773D1*
X970171Y2061353D1*
X973983Y2055134D1*
X976774Y2048394D1*
X978478Y2041299D1*
X979050Y2034026D1*
X978478Y2026753D1*
X976774Y2019659D1*
X973983Y2012919D1*
X970171Y2006699D1*
X965433Y2001151D1*
X959885Y1996413D1*
X953665Y1992601D1*
X946925Y1989810D1*
X939831Y1988106D1*
X932558Y1987534D1*
X925285Y1988106D1*
X918190Y1989810D1*
X911450Y1992601D1*
X906049Y1995866D1*
X906058Y1452273D1*
X912677Y1445609D1*
X1087774D1*
D27*
X2192205Y1329822D3*
D28*
Y1479822D3*
D27*
X2192223Y2353444D3*
D28*
Y2503444D3*
D27*
Y2786514D3*
D28*
Y2936514D3*
D31*
X1200035Y2012621D3*
D32*
Y1912621D3*
Y1812621D3*
Y1712621D3*
Y1612621D3*
Y1512621D3*
Y1412621D3*
Y1312621D3*
Y1212621D3*
Y1112621D3*
Y1012621D3*
Y912621D3*
Y812621D3*
Y712621D3*
Y612621D3*
X1800035D3*
Y712621D3*
Y812621D3*
Y912621D3*
Y1012621D3*
Y1112621D3*
Y1212621D3*
Y1312621D3*
Y1412621D3*
Y1512621D3*
Y1612621D3*
Y1712621D3*
Y1812621D3*
Y1912621D3*
Y2012621D3*
D35*
X1081273Y3794058D3*
D36*
X1131273Y3994058D3*
X1181273Y3794058D3*
X1231273Y3994058D3*
X1281273Y3794058D3*
X1331273Y3994058D3*
X1381273Y3794058D3*
X1431273Y3994058D3*
X1481273Y3794058D3*
X1531273Y3994058D3*
X1581273Y3794058D3*
X1631273Y3994058D3*
X1681273Y3794058D3*
X1731273Y3994058D3*
X1781273Y3794058D3*
D37*
X1073399Y4227129D3*
X1789147D3*
D27*
X2192223Y1766633D3*
D28*
Y1916633D3*
Y2066633D3*
M02*
