M48
INCH
T01C0.0191
T02C0.0394
T03C0.0472
T04C0.0512
T05C0.0591
T06C0.0709
T07C0.126
%
T01
X+022674Y+028615
X+020637Y+026647
X+017729Y+025362
X+016187Y+024843
X+014884Y+024843
X+014884Y+024248
X+012260Y+024123
X+011750Y+022705
X+012418Y+022176
X+011750Y+020939
X+009326Y+020340
X+009714Y+015515
X+011316Y+014610
X+020256Y+020248
X+019181Y+029662
X+019181Y+032114
X+019181Y+032644
X+021164Y+032644
X+020637Y+036350
X+020110Y+037775
X+015279Y+036690
X+014208Y+036888
X+014884Y+035142
X+016730Y+032705
X+011343Y+034194
X+011813Y+036362
X+009126Y+036888
X+007642Y+036888
X+007642Y+033143
X+007113Y+027528
X+009776Y+027528
X+008471Y+041188
X+020938Y+008355
T02
X+012000Y+020126
X+012000Y+019126
X+012000Y+018126
X+012000Y+017126
X+012000Y+016126
X+012000Y+015126
X+012000Y+014126
X+012000Y+013126
X+012000Y+012126
X+012000Y+011126
X+012000Y+010126
X+012000Y+009126
X+012000Y+008126
X+012000Y+007126
X+012000Y+006126
X+018000Y+006126
X+018000Y+007126
X+018000Y+008126
X+018000Y+009126
X+018000Y+010126
X+018000Y+011126
X+018000Y+012126
X+018000Y+013126
X+018000Y+014126
X+018000Y+015126
X+018000Y+016126
X+018000Y+017126
X+018000Y+018126
X+018000Y+019126
X+018000Y+020126
T03
X+010813Y+037941
X+011813Y+037941
X+012813Y+037941
X+013813Y+037941
X+014813Y+037941
X+015813Y+037941
X+016813Y+037941
X+017813Y+037941
X+017313Y+039941
X+016313Y+039941
X+015313Y+039941
X+014313Y+039941
X+013313Y+039941
X+012313Y+039941
X+011313Y+039941
T04
X+021922Y+013298
X+021922Y+014798
X+021922Y+017666
X+021922Y+019166
X+021922Y+020666
X+021922Y+023534
X+021922Y+025034
X+021922Y+027865
X+021922Y+029365
T05
X+007874Y+026382
X+007874Y+029295
T06
X+010734Y+042271
X+017891Y+042271
T07
X+005152Y+005123
X+022474Y+005123
X+022474Y+042131
X+005152Y+042131
T00
M30
