G04 DipTrace 3.3.1.3*
G04 SkyeTrackerV8.0.gbo*
%MOIN*%
G04 #@! TF.FileFunction,Legend,Bot*
G04 #@! TF.Part,Single*
%ADD89C,0.018527*%
%FSLAX26Y26*%
G04*
G70*
G90*
G75*
G01*
G04 BotSilk*
%LPD*%
X519718Y3378709D2*
D89*
X508178Y3390117D1*
X502474Y3407361D1*
Y3430309D1*
X508178Y3447553D1*
X519718Y3459093D1*
X531126D1*
X542666Y3453257D1*
X548370Y3447553D1*
X554073Y3436145D1*
X565614Y3401657D1*
X571318Y3390117D1*
X577154Y3384413D1*
X588562Y3378709D1*
X605806D1*
X617213Y3390117D1*
X623050Y3407361D1*
Y3430309D1*
X617213Y3447553D1*
X605806Y3459093D1*
X502474Y3341655D2*
X623050D1*
X542666Y3284219D2*
X600102Y3341655D1*
X577154Y3318707D2*
X623050Y3278515D1*
X542666Y3235625D2*
X623050Y3201269D1*
X645998Y3212677D1*
X657538Y3224217D1*
X663242Y3235625D1*
Y3241461D1*
X542666Y3166781D2*
X623050Y3201269D1*
X577154Y3129727D2*
Y3060883D1*
X565614D1*
X554073Y3066587D1*
X548370Y3072291D1*
X542666Y3083831D1*
Y3101075D1*
X548370Y3112483D1*
X559910Y3124023D1*
X577154Y3129727D1*
X588562D1*
X605806Y3124023D1*
X617213Y3112483D1*
X623050Y3101075D1*
Y3083831D1*
X617213Y3072291D1*
X605806Y3060883D1*
X502474Y2983637D2*
X623050D1*
X502474Y3023829D2*
Y2943445D1*
X542666Y2906391D2*
X623050D1*
X577154D2*
X559910Y2900554D1*
X548370Y2889146D1*
X542666Y2877606D1*
Y2860362D1*
Y2754464D2*
X623050D1*
X559910D2*
X548370Y2765872D1*
X542666Y2777412D1*
Y2794524D1*
X548370Y2806064D1*
X559910Y2817471D1*
X577154Y2823308D1*
X588562D1*
X605806Y2817471D1*
X617213Y2806064D1*
X623050Y2794524D1*
Y2777412D1*
X617213Y2765872D1*
X605806Y2754464D1*
X559910Y2648434D2*
X548370Y2659974D1*
X542666Y2671514D1*
Y2688626D1*
X548370Y2700166D1*
X559910Y2711574D1*
X577154Y2717410D1*
X588562D1*
X605806Y2711574D1*
X617213Y2700166D1*
X623050Y2688626D1*
Y2671514D1*
X617213Y2659974D1*
X605806Y2648434D1*
X502474Y2611379D2*
X623050D1*
X542666Y2553943D2*
X600102Y2611379D1*
X577154Y2588432D2*
X623050Y2548240D1*
X577154Y2511185D2*
Y2442342D1*
X565614D1*
X554073Y2448045D1*
X548370Y2453749D1*
X542666Y2465290D1*
Y2482534D1*
X548370Y2493941D1*
X559910Y2505482D1*
X577154Y2511185D1*
X588562D1*
X605806Y2505482D1*
X617213Y2493941D1*
X623050Y2482534D1*
Y2465290D1*
X617213Y2453749D1*
X605806Y2442342D1*
X542666Y2405287D2*
X623050D1*
X577154D2*
X559910Y2399451D1*
X548370Y2388043D1*
X542666Y2376503D1*
Y2359259D1*
X611510Y2316501D2*
X617346Y2322205D1*
X623050Y2316501D1*
X617346Y2310664D1*
X611510Y2316501D1*
X559910Y2204634D2*
X548370Y2216174D1*
X542666Y2227714D1*
Y2244826D1*
X548370Y2256366D1*
X559910Y2267774D1*
X577154Y2273610D1*
X588562D1*
X605806Y2267774D1*
X617213Y2256366D1*
X623050Y2244826D1*
Y2227714D1*
X617213Y2216174D1*
X605806Y2204634D1*
X542666Y2138928D2*
X548370Y2150336D1*
X559910Y2161876D1*
X577154Y2167580D1*
X588562D1*
X605806Y2161876D1*
X617213Y2150336D1*
X623050Y2138928D1*
Y2121684D1*
X617213Y2110144D1*
X605806Y2098736D1*
X588562Y2092900D1*
X577154D1*
X559910Y2098736D1*
X548370Y2110144D1*
X542666Y2121684D1*
Y2138928D1*
Y2055845D2*
X623050D1*
X565614D2*
X548370Y2038601D1*
X542666Y2027061D1*
Y2009950D1*
X548370Y1998409D1*
X565614Y1992705D1*
X623050D1*
X565614D2*
X548370Y1975461D1*
X542666Y1963921D1*
Y1946810D1*
X548370Y1935269D1*
X565614Y1929433D1*
X623050D1*
M02*
