999
dxfrw 0.6.3
  0
SECTION
  2
HEADER
  9
$ACADVER
  1
AC1021
  9
$DWGCODEPAGE
  3
ANSI_1252
  9
$INSBASE
 10
0
 20
0
 30
0
  9
$EXTMIN
 10
-1.275
 20
-1.041628465777284
 30
0
  9
$EXTMAX
 10
12.8
 20
21.0002
 30
0
  9
$LIMMIN
 10
0
 20
0
  9
$LIMMAX
 10
420
 20
297
  9
$ORTHOMODE
 70
    0
  9
$REGENMODE
 70
    1
  9
$FILLMODE
 70
    1
  9
$QTEXTMODE
 70
    0
  9
$MIRRTEXT
 70
    0
  9
$LTSCALE
 40
1
  9
$ATTMODE
 70
    0
  9
$TEXTSIZE
 40
2.5
  9
$TRACEWID
 40
15.68
  9
$TEXTSTYLE
  7
STANDARD
  9
$CLAYER
  8
Base
  9
$CELTYPE
  6
BYLAYER
  9
$CECOLOR
 62
  256
  9
$CELTSCALE
 40
1
  9
$DISPSILH
 70
    0
  9
$DIMSCALE
 40
1
  9
$DIMASZ
 40
0.25
  9
$DIMEXO
 40
0
  9
$DIMDLI
 40
3.75
  9
$DIMRND
 40
0
  9
$DIMDLE
 40
0
  9
$DIMEXE
 40
0.25
  9
$DIMTP
 40
0
  9
$DIMTM
 40
0
  9
$DIMTXT
 40
0.25
  9
$DIMCEN
 40
2.5
  9
$DIMTSZ
 40
0
  9
$DIMTOL
 70
    0
  9
$DIMLIM
 70
    0
  9
$DIMTIH
 70
    0
  9
$DIMTOH
 70
    0
  9
$DIMSE1
 70
    0
  9
$DIMSE2
 70
    0
  9
$DIMTAD
 70
    1
  9
$DIMZIN
 70
    1
  9
$DIMBLK
  1

  9
$DIMASO
 70
    1
  9
$DIMSHO
 70
    1
  9
$DIMPOST
  1

  9
$DIMAPOST
  1

  9
$DIMALT
 70
    0
  9
$DIMALTD
 70
    3
  9
$DIMALTF
 40
0.03937
  9
$DIMLFAC
 40
1
  9
$DIMTOFL
 70
    1
  9
$DIMTVP
 40
0
  9
$DIMTIX
 70
    0
  9
$DIMSOXD
 70
    0
  9
$DIMSAH
 70
    0
  9
$DIMBLK1
  1

  9
$DIMBLK2
  1

  9
$DIMSTYLE
  2
STANDARD
  9
$DIMCLRD
 70
    0
  9
$DIMCLRE
 70
    0
  9
$DIMCLRT
 70
    0
  9
$DIMTFAC
 40
1
  9
$DIMGAP
 40
0.025
  9
$DIMJUST
 70
    0
  9
$DIMSD1
 70
    0
  9
$DIMSD2
 70
    0
  9
$DIMTOLJ
 70
    0
  9
$DIMTZIN
 70
    8
  9
$DIMALTZ
 70
    0
  9
$DIMALTTZ
 70
    0
  9
$DIMUPT
 70
    0
  9
$DIMDEC
 70
    4
  9
$DIMTDEC
 70
    2
  9
$DIMALTU
 70
    2
  9
$DIMALTTD
 70
    3
  9
$DIMTXSTY
  7
standard
  9
$DIMAUNIT
 70
    0
  9
$DIMADEC
 70
    2
  9
$DIMALTRND
 40
0
  9
$DIMAZIN
 70
    0
  9
$DIMDSEP
 70
    0
  9
$DIMATFIT
 70
    3
  9
$DIMFRAC
 70
    0
  9
$DIMLDRBLK
  1
STANDARD
  9
$DIMLUNIT
 70
    2
  9
$DIMLWD
 70
   -2
  9
$DIMLWE
 70
   -2
  9
$DIMTMOVE
 70
    0
  9
$DIMFXL
 40
0.5
  9
$DIMFXLON
 70
    1
  9
$DIMJOGANG
 40
0.7854
  9
$DIMTFILL
 70
    0
  9
$DIMTFILLCLR
 70
    0
  9
$DIMARCSYM
 70
    0
  9
$DIMLTYPE
  6

  9
$DIMLTEX1
  6

  9
$DIMLTEX2
  6

  9
$LUNITS
 70
    2
  9
$LUPREC
 70
    3
  9
$SKETCHINC
 40
1
  9
$FILLETRAD
 40
0
  9
$AUNITS
 70
    0
  9
$AUPREC
 70
    2
  9
$MENU
  1
.
  9
$ELEVATION
 40
0
  9
$PELEVATION
 40
0
  9
$THICKNESS
 40
0
  9
$LIMCHECK
 70
    0
  9
$CHAMFERA
 40
0
  9
$CHAMFERB
 40
0
  9
$CHAMFERC
 40
0
  9
$CHAMFERD
 40
0
  9
$SKPOLY
 70
    0
  9
$USRTIMER
 70
    1
  9
$ANGBASE
 50
0
  9
$ANGDIR
 70
    0
  9
$PDMODE
 70
   34
  9
$PDSIZE
 40
0
  9
$PLINEWID
 40
0
  9
$SPLFRAME
 70
    0
  9
$SPLINETYPE
 70
    2
  9
$SPLINESEGS
 70
    8
  9
$HANDSEED
  5
20000
  9
$SURFTAB1
 70
    6
  9
$SURFTAB2
 70
    6
  9
$SURFTYPE
 70
    6
  9
$SURFU
 70
    6
  9
$SURFV
 70
    6
  9
$UCSBASE
  2

  9
$UCSNAME
  2

  9
$UCSORG
 10
0
 20
0
 30
0
  9
$UCSXDIR
 10
1
 20
0
 30
0
  9
$UCSYDIR
 10
0
 20
1
 30
0
  9
$UCSORTHOREF
  2

  9
$UCSORTHOVIEW
 70
    0
  9
$UCSORGTOP
 10
0
 20
0
 30
0
  9
$UCSORGBOTTOM
 10
0
 20
0
 30
0
  9
$UCSORGLEFT
 10
0
 20
0
 30
0
  9
$UCSORGRIGHT
 10
0
 20
0
 30
0
  9
$UCSORGFRONT
 10
0
 20
0
 30
0
  9
$UCSORGBACK
 10
0
 20
0
 30
0
  9
$PUCSBASE
  2

  9
$PUCSNAME
  2

  9
$PUCSORG
 10
0
 20
0
 30
0
  9
$PUCSXDIR
 10
1
 20
0
 30
0
  9
$PUCSYDIR
 10
0
 20
1
 30
0
  9
$PUCSORTHOREF
  2

  9
$PUCSORTHOVIEW
 70
    0
  9
$PUCSORGTOP
 10
0
 20
0
 30
0
  9
$PUCSORGBOTTOM
 10
0
 20
0
 30
0
  9
$PUCSORGLEFT
 10
0
 20
0
 30
0
  9
$PUCSORGRIGHT
 10
0
 20
0
 30
0
  9
$PUCSORGFRONT
 10
0
 20
0
 30
0
  9
$PUCSORGBACK
 10
0
 20
0
 30
0
  9
$USERI1
 70
    0
  9
$USERI2
 70
    0
  9
$USERI3
 70
    0
  9
$USERI4
 70
    0
  9
$USERI5
 70
    0
  9
$USERR1
 40
0
  9
$USERR2
 40
0
  9
$USERR3
 40
0
  9
$USERR4
 40
0
  9
$USERR5
 40
0
  9
$WORLDVIEW
 70
    1
  9
$SHADEDGE
 70
    3
  9
$SHADEDIF
 70
   70
  9
$TILEMODE
 70
    1
  9
$MAXACTVP
 70
   64
  9
$PINSBASE
 10
5.035122263167072
 20
0.8472969313161289
 30
0
  9
$PLIMCHECK
 70
    0
  9
$PEXTMIN
 10
0
 20
0
 30
0
  9
$PEXTMAX
 10
0
 20
0
 30
0
  9
$GRIDMODE
 70
    1
  9
$SNAPSTYLE
 70
    0
  9
$GRIDUNIT
 10
0
 20
0
  9
$PLIMMIN
 10
0
 20
0
  9
$PLIMMAX
 10
14
 20
8.5
  9
$UNITMODE
 70
    0
  9
$VISRETAIN
 70
    1
  9
$PLINEGEN
 70
    0
  9
$PSLTSCALE
 70
    1
  9
$TREEDEPTH
 70
 3020
  9
$CMLSTYLE
  2
Standard
  9
$CMLJUST
 70
    0
  9
$CMLSCALE
 40
20
  9
$PROXYGRAPHICS
 70
    1
  9
$MEASUREMENT
 70
    1
  9
$CELWEIGHT
370
   -1
  9
$ENDCAPS
280
    0
  9
$JOINSTYLE
280
    0
  9
$LWDISPLAY
290
    0
  9
$INSUNITS
 70
    1
  9
$HYPERLINKBASE
  1

  9
$STYLESHEET
  1

  9
$XEDIT
290
    1
  9
$CEPSNTYPE
380
    0
  9
$PSTYLEMODE
290
    1
  9
$EXTNAMES
290
    1
  9
$PSVPSCALE
 40
0.3409768988151053
  9
$OLESTARTUP
290
    0
  9
$SORTENTS
280
  127
  9
$INDEXCTL
280
    0
  9
$HIDETEXT
280
    1
  9
$XCLIPFRAME
290
    0
  9
$HALOGAP
280
    0
  9
$OBSCOLOR
 70
  257
  9
$OBSLTYPE
280
    0
  9
$INTERSECTIONDISPLAY
280
    0
  9
$INTERSECTIONCOLOR
 70
  257
  9
$DIMASSOC
280
    1
  9
$PROJECTNAME
  1

  9
$CAMERADISPLAY
290
    0
  9
$LENSLENGTH
 40
50
  9
$CAMERAHEIGHT
 40
0
  9
$STEPSPERSEC
 40
2
  9
$STEPSIZE
 40
50
  9
$3DDWFPREC
 40
2
  9
$PSOLWIDTH
 40
5
  9
$PSOLHEIGHT
 40
80
  9
$LOFTANG1
 40
1.570796326794897
  9
$LOFTANG2
 40
1.570796326794897
  9
$LOFTMAG1
 40
0
  9
$LOFTMAG2
 40
0
  9
$LOFTPARAM
 70
    7
  9
$LOFTNORMALS
280
    1
  9
$LATITUDE
 40
1
  9
$LONGITUDE
 40
1
  9
$NORTHDIRECTION
 40
0
  9
$TIMEZONE
 70
-8000
  9
$LIGHTGLYPHDISPLAY
280
    1
  9
$TILEMODELIGHTSYNCH
280
    1
  9
$SOLIDHIST
280
    1
  9
$SHOWHIST
280
    1
  9
$DWFFRAME
280
    2
  9
$DGNFRAME
280
    0
  9
$REALWORLDSCALE
290
    1
  9
$INTERFERECOLOR
 62
    1
  9
$CSHADOW
280
    0
  9
$SHADOWPLANELOCATION
 40
0
  0
ENDSEC
  0
SECTION
  2
CLASSES
  0
ENDSEC
  0
SECTION
  2
TABLES
  0
TABLE
  2
VPORT
  5
8
330
0
100
AcDbSymbolTable
 70
    1
  0
VPORT
  5
31
330
2
100
AcDbSymbolTableRecord
100
AcDbViewportTableRecord
  2
*ACTIVE
 70
    0
 10
0
 20
0
 11
1
 21
1
 12
-8.476831685863088
 22
-1.010349426205374
 13
0
 23
0
 14
10
 24
10
 15
10
 25
10
 16
0
 26
0
 36
1
 17
0
 27
0
 37
0
 40
1.050763403253589
 41
2.096153846153846
 42
50
 43
0
 44
0
 50
0
 51
0
 71
    0
 72
  100
 73
    1
 74
    3
 75
    0
 76
    1
 77
    0
 78
    0
281
    0
 65
    1
110
0
120
0
130
0
111
1
121
0
131
0
112
0
122
1
132
0
 79
    0
146
0
348
10020
 60
    7
 61
    5
292
1
282
    1
141
0
142
0
 63
  250
421
3358443
  0
ENDTAB
  0
TABLE
  2
LTYPE
  5
5
330
0
100
AcDbSymbolTable
 70
    4
  0
LTYPE
  5
14
330
5
100
AcDbSymbolTableRecord
100
AcDbLinetypeTableRecord
  2
ByBlock
 70
    0
  3

 72
   65
 73
    0
 40
0
  0
LTYPE
  5
15
330
5
100
AcDbSymbolTableRecord
100
AcDbLinetypeTableRecord
  2
ByLayer
 70
    0
  3

 72
   65
 73
    0
 40
0
  0
LTYPE
  5
16
330
5
100
AcDbSymbolTableRecord
100
AcDbLinetypeTableRecord
  2
Continuous
 70
    0
  3
Solid line
 72
   65
 73
    0
 40
0
  0
LTYPE
  5
32
330
5
100
AcDbSymbolTableRecord
100
AcDbLinetypeTableRecord
  2
DOT
 70
    0
  3
Dot . . . . . . . . . . . . . . . . . . . . . .
 72
   65
 73
    2
 40
6.35
 49
0
 74
    0
 49
-6.35
 74
    0
  0
LTYPE
  5
33
330
5
100
AcDbSymbolTableRecord
100
AcDbLinetypeTableRecord
  2
DOTTINY
 70
    0
  3
Dot (.15x) .....................................
 72
   65
 73
    2
 40
0.9525
 49
0
 74
    0
 49
-0.9525
 74
    0
  0
LTYPE
  5
34
330
5
100
AcDbSymbolTableRecord
100
AcDbLinetypeTableRecord
  2
DOT2
 70
    0
  3
Dot (.5x) .....................................
 72
   65
 73
    2
 40
3.175
 49
0
 74
    0
 49
-3.175
 74
    0
  0
LTYPE
  5
35
330
5
100
AcDbSymbolTableRecord
100
AcDbLinetypeTableRecord
  2
DOTX2
 70
    0
  3
Dot (2x) .  .  .  .  .  .  .  .  .  .  .  .  .
 72
   65
 73
    2
 40
12.7
 49
0
 74
    0
 49
-12.7
 74
    0
  0
LTYPE
  5
36
330
5
100
AcDbSymbolTableRecord
100
AcDbLinetypeTableRecord
  2
DASHED
 70
    0
  3
Dashed _ _ _ _ _ _ _ _ _ _ _ _ _ _ _ _ _
 72
   65
 73
    2
 40
19.05
 49
12.7
 74
    0
 49
-6.35
 74
    0
  0
LTYPE
  5
37
330
5
100
AcDbSymbolTableRecord
100
AcDbLinetypeTableRecord
  2
DASHEDTINY
 70
    0
  3
Dashed (.15x) _ _ _ _ _ _ _ _ _ _ _ _ _ _ _ _ _
 72
   65
 73
    2
 40
2.8575
 49
1.905
 74
    0
 49
-0.9525
 74
    0
  0
LTYPE
  5
38
330
5
100
AcDbSymbolTableRecord
100
AcDbLinetypeTableRecord
  2
DASHED2
 70
    0
  3
Dashed (.5x) _ _ _ _ _ _ _ _ _ _ _ _ _ _ _ _ _
 72
   65
 73
    2
 40
9.524999999999999
 49
6.35
 74
    0
 49
-3.175
 74
    0
  0
LTYPE
  5
39
330
5
100
AcDbSymbolTableRecord
100
AcDbLinetypeTableRecord
  2
DASHEDX2
 70
    0
  3
Dashed (2x) ____  ____  ____  ____  ____  ___
 72
   65
 73
    2
 40
38.09999999999999
 49
25.4
 74
    0
 49
-12.7
 74
    0
  0
LTYPE
  5
3A
330
5
100
AcDbSymbolTableRecord
100
AcDbLinetypeTableRecord
  2
DASHDOT
 70
    0
  3
Dash dot __ . __ . __ . __ . __ . __ . __ . __
 72
   65
 73
    4
 40
25.4
 49
12.7
 74
    0
 49
-6.35
 74
    0
 49
0
 74
    0
 49
-6.35
 74
    0
  0
LTYPE
  5
3B
330
5
100
AcDbSymbolTableRecord
100
AcDbLinetypeTableRecord
  2
DASHDOTTINY
 70
    0
  3
Dash dot (.15x) _._._._._._._._._._._._._._._.
 72
   65
 73
    4
 40
3.81
 49
1.905
 74
    0
 49
-0.9525
 74
    0
 49
0
 74
    0
 49
-0.9525
 74
    0
  0
LTYPE
  5
3C
330
5
100
AcDbSymbolTableRecord
100
AcDbLinetypeTableRecord
  2
DASHDOT2
 70
    0
  3
Dash dot (.5x) _._._._._._._._._._._._._._._.
 72
   65
 73
    4
 40
12.7
 49
6.35
 74
    0
 49
-3.175
 74
    0
 49
0
 74
    0
 49
-3.175
 74
    0
  0
LTYPE
  5
3D
330
5
100
AcDbSymbolTableRecord
100
AcDbLinetypeTableRecord
  2
DASHDOTX2
 70
    0
  3
Dash dot (2x) ____  .  ____  .  ____  .  ___
 72
   65
 73
    4
 40
50.8
 49
25.4
 74
    0
 49
-12.7
 74
    0
 49
0
 74
    0
 49
-12.7
 74
    0
  0
LTYPE
  5
3E
330
5
100
AcDbSymbolTableRecord
100
AcDbLinetypeTableRecord
  2
DIVIDE
 70
    0
  3
Divide ____ . . ____ . . ____ . . ____ . . ____
 72
   65
 73
    6
 40
31.75
 49
12.7
 74
    0
 49
-6.35
 74
    0
 49
0
 74
    0
 49
-6.35
 74
    0
 49
0
 74
    0
 49
-6.35
 74
    0
  0
LTYPE
  5
3F
330
5
100
AcDbSymbolTableRecord
100
AcDbLinetypeTableRecord
  2
DIVIDETINY
 70
    0
  3
Divide (.15x) __..__..__..__..__..__..__..__.._
 72
   65
 73
    6
 40
4.7625
 49
1.905
 74
    0
 49
-0.9525
 74
    0
 49
0
 74
    0
 49
-0.9525
 74
    0
 49
0
 74
    0
 49
-0.9525
 74
    0
  0
LTYPE
  5
40
330
5
100
AcDbSymbolTableRecord
100
AcDbLinetypeTableRecord
  2
DIVIDE2
 70
    0
  3
Divide (.5x) __..__..__..__..__..__..__..__.._
 72
   65
 73
    6
 40
15.875
 49
6.35
 74
    0
 49
-3.175
 74
    0
 49
0
 74
    0
 49
-3.175
 74
    0
 49
0
 74
    0
 49
-3.175
 74
    0
  0
LTYPE
  5
41
330
5
100
AcDbSymbolTableRecord
100
AcDbLinetypeTableRecord
  2
DIVIDEX2
 70
    0
  3
Divide (2x) ________  .  .  ________  .  .  _
 72
   65
 73
    6
 40
63.5
 49
25.4
 74
    0
 49
-12.7
 74
    0
 49
0
 74
    0
 49
-12.7
 74
    0
 49
0
 74
    0
 49
-12.7
 74
    0
  0
LTYPE
  5
42
330
5
100
AcDbSymbolTableRecord
100
AcDbLinetypeTableRecord
  2
BORDER
 70
    0
  3
Border __ __ . __ __ . __ __ . __ __ . __ __ .
 72
   65
 73
    6
 40
44.45
 49
12.7
 74
    0
 49
-6.35
 74
    0
 49
12.7
 74
    0
 49
-6.35
 74
    0
 49
0
 74
    0
 49
-6.35
 74
    0
  0
LTYPE
  5
43
330
5
100
AcDbSymbolTableRecord
100
AcDbLinetypeTableRecord
  2
BORDERTINY
 70
    0
  3
Border (.15x) __.__.__.__.__.__.__.__.__.__.__.
 72
   65
 73
    6
 40
6.6675
 49
1.905
 74
    0
 49
-0.9525
 74
    0
 49
1.905
 74
    0
 49
-0.9525
 74
    0
 49
0
 74
    0
 49
-0.9525
 74
    0
  0
LTYPE
  5
44
330
5
100
AcDbSymbolTableRecord
100
AcDbLinetypeTableRecord
  2
BORDER2
 70
    0
  3
Border (.5x) __.__.__.__.__.__.__.__.__.__.__.
 72
   65
 73
    6
 40
22.225
 49
6.35
 74
    0
 49
-3.175
 74
    0
 49
6.35
 74
    0
 49
-3.175
 74
    0
 49
0
 74
    0
 49
-3.175
 74
    0
  0
LTYPE
  5
45
330
5
100
AcDbSymbolTableRecord
100
AcDbLinetypeTableRecord
  2
BORDERX2
 70
    0
  3
Border (2x) ____  ____  .  ____  ____  .  ___
 72
   65
 73
    6
 40
88.89999999999999
 49
25.4
 74
    0
 49
-12.7
 74
    0
 49
25.4
 74
    0
 49
-12.7
 74
    0
 49
0
 74
    0
 49
-12.7
 74
    0
  0
LTYPE
  5
46
330
5
100
AcDbSymbolTableRecord
100
AcDbLinetypeTableRecord
  2
CENTER
 70
    0
  3
Center ____ _ ____ _ ____ _ ____ _ ____ _ ____
 72
   65
 73
    4
 40
50.8
 49
31.75
 74
    0
 49
-6.35
 74
    0
 49
6.35
 74
    0
 49
-6.35
 74
    0
  0
LTYPE
  5
47
330
5
100
AcDbSymbolTableRecord
100
AcDbLinetypeTableRecord
  2
CENTERTINY
 70
    0
  3
Center (.15x) ___ _ ___ _ ___ _ ___ _ ___ _ ___
 72
   65
 73
    4
 40
7.62
 49
4.7625
 74
    0
 49
-0.9525
 74
    0
 49
0.9525
 74
    0
 49
-0.9525
 74
    0
  0
LTYPE
  5
48
330
5
100
AcDbSymbolTableRecord
100
AcDbLinetypeTableRecord
  2
CENTER2
 70
    0
  3
Center (.5x) ___ _ ___ _ ___ _ ___ _ ___ _ ___
 72
   65
 73
    4
 40
28.575
 49
19.05
 74
    0
 49
-3.175
 74
    0
 49
3.175
 74
    0
 49
-3.175
 74
    0
  0
LTYPE
  5
49
330
5
100
AcDbSymbolTableRecord
100
AcDbLinetypeTableRecord
  2
CENTERX2
 70
    0
  3
Center (2x) ________  __  ________  __  _____
 72
   65
 73
    4
 40
101.6
 49
63.5
 74
    0
 49
-12.7
 74
    0
 49
12.7
 74
    0
 49
-12.7
 74
    0
  0
ENDTAB
  0
TABLE
  2
LAYER
  5
2
330
0
100
AcDbSymbolTable
 70
    1
  0
LAYER
  5
10
330
2
100
AcDbSymbolTableRecord
100
AcDbLayerTableRecord
  2
0
 70
    0
 62
    7
  6
CONTINUOUS
370
    0
390
F
  0
LAYER
  5
4A
330
2
100
AcDbSymbolTableRecord
100
AcDbLayerTableRecord
  2
Base
 70
    0
 62
    3
  6
CONTINUOUS
370
    0
390
F
  0
LAYER
  5
4B
330
2
100
AcDbSymbolTableRecord
100
AcDbLayerTableRecord
  2
Measurements
 70
    0
 62
    4
  6
CONTINUOUS
370
    0
390
F
1001
LibreCad
1070
    1
  0
LAYER
  5
4C
330
2
100
AcDbSymbolTableRecord
100
AcDbLayerTableRecord
  2
PrintAlignment
 70
    0
 62
    8
  6
CONTINUOUS
370
    0
390
F
  0
ENDTAB
  0
TABLE
  2
STYLE
  5
3
330
0
100
AcDbSymbolTable
 70
    3
  0
STYLE
  5
4D
330
2
100
AcDbSymbolTableRecord
100
AcDbTextStyleTableRecord
  2
Standard
 70
    0
 40
0
 41
1
 50
0
 71
    0
 42
1
  3
txt
  4

  0
ENDTAB
  0
TABLE
  2
VIEW
  5
6
330
0
100
AcDbSymbolTable
 70
    0
  0
ENDTAB
  0
TABLE
  2
UCS
  5
7
330
0
100
AcDbSymbolTable
 70
    0
  0
ENDTAB
  0
TABLE
  2
APPID
  5
9
330
0
100
AcDbSymbolTable
 70
    1
  0
APPID
  5
12
330
9
100
AcDbSymbolTableRecord
100
AcDbRegAppTableRecord
  2
ACAD
 70
    0
  0
APPID
  5
4E
330
9
100
AcDbSymbolTableRecord
100
AcDbRegAppTableRecord
  2
LibreCad
 70
    0
  0
ENDTAB
  0
TABLE
  2
DIMSTYLE
  5
A
330
0
100
AcDbSymbolTable
 70
    1
100
AcDbDimStyleTable
 71
    1
  0
DIMSTYLE
105
4F
330
A
100
AcDbSymbolTableRecord
100
AcDbDimStyleTableRecord
  2
Standard
 70
    0
 40
1
 41
0.25
 42
0
 43
0.38
 44
0.25
 45
0
 46
0
 47
0
 48
0
 49
0.5
140
0.25
141
0.09
142
0
143
25.4
144
1
145
0
146
1
147
0.025
148
0
 71
    0
 72
    0
 73
    0
 74
    1
 75
    0
 76
    0
 77
    0
 78
    1
 79
    0
170
    0
171
    2
172
    0
173
    0
174
    0
175
    0
176
    0
177
    0
178
    0
179
    2
271
    4
272
    4
273
    2
274
    2
275
    0
276
    0
277
    2
278
    0
279
    0
280
    0
281
    0
282
    0
283
    1
284
    0
285
    0
286
    0
288
    0
289
    3
290
    1
340
standard
341

371
   -2
372
   -2
  0
ENDTAB
  0
TABLE
  2
BLOCK_RECORD
  5
1
330
0
100
AcDbSymbolTable
 70
    2
  0
BLOCK_RECORD
  5
1F
330
1
100
AcDbSymbolTableRecord
100
AcDbBlockTableRecord
  2
*Model_Space
 70
    0
280
    1
281
    0
  0
BLOCK_RECORD
  5
1E
330
1
100
AcDbSymbolTableRecord
100
AcDbBlockTableRecord
  2
*Paper_Space
 70
    0
280
    1
281
    0
  0
BLOCK_RECORD
  5
50
330
1
100
AcDbSymbolTableRecord
100
AcDbBlockTableRecord
  2
*D1
 70
    0
280
    1
281
    0
  0
BLOCK_RECORD
  5
53
330
1
100
AcDbSymbolTableRecord
100
AcDbBlockTableRecord
  2
*D3
 70
    0
280
    1
281
    0
  0
BLOCK_RECORD
  5
56
330
1
100
AcDbSymbolTableRecord
100
AcDbBlockTableRecord
  2
*D2
 70
    0
280
    1
281
    0
  0
BLOCK_RECORD
  5
59
330
1
100
AcDbSymbolTableRecord
100
AcDbBlockTableRecord
  2
Pillow
 70
    0
280
    1
281
    0
  0
ENDTAB
  0
ENDSEC
  0
SECTION
  2
BLOCKS
  0
BLOCK
  5
20
330
1F
100
AcDbEntity
  8
0
100
AcDbBlockBegin
  2
*Model_Space
 70
    0
 10
0
 20
0
 30
0
  3
*Model_Space
  1

  0
ENDBLK
  5
21
330
1F
100
AcDbEntity
  8
0
100
AcDbBlockEnd
  0
BLOCK
  5
1C
330
1B
100
AcDbEntity
  8
0
100
AcDbBlockBegin
  2
*Paper_Space
 70
    0
 10
0
 20
0
 30
0
  3
*Paper_Space
  1

  0
ENDBLK
  5
1D
330
1F
100
AcDbEntity
  8
0
100
AcDbBlockEnd
  0
BLOCK
  5
51
330
50
100
AcDbEntity
  8
0
100
AcDbBlockBegin
  2
*D1
 70
    1
 10
0
 20
0
  3
*D1
  1

  0
LINE
  5
5C
100
AcDbEntity
  8
Measurements
  6
ByBlock
 62
    0
370
   -2
100
AcDbLine
 10
-0.9999999999999999
 20
12
 11
-0.9999999999999993
 21
21
  0
SOLID
  5
5D
100
AcDbEntity
  8
Measurements
  6
ByBlock
 62
    0
370
   -2
100
AcDbTrace
 10
-0.9999999999999999
 20
12
 30
0
 11
-1.041628465777284
 21
12.25
 31
0
 12
-0.9583715342227158
 22
12.25
 32
0
 13
-0.9583715342227158
 23
12.25
 33
0
  0
SOLID
  5
5E
100
AcDbEntity
  8
Measurements
  6
ByBlock
 62
    0
370
   -2
100
AcDbTrace
 10
-0.9999999999999993
 20
21
 30
0
 11
-0.9583715342227153
 21
20.75
 31
0
 12
-1.041628465777283
 22
20.75
 32
0
 13
-1.041628465777283
 23
20.75
 33
0
  0
MTEXT
  5
5F
100
AcDbEntity
  8
Measurements
  6
CONTINUOUS
 62
    0
370
   -2
100
AcDbMText
 10
-1.149999999999999
 20
16.5
 30
0
 40
0.25
 41
0.9722222222222376
 71
    5
 72
    1
  1
9.0000
  7
standard
210
0
220
0
230
1
 50
90
 73
    2
 44
1
  0
LINE
  5
60
100
AcDbEntity
  8
Measurements
  6
ByBlock
 62
    0
370
   -2
100
AcDbLine
 10
-0.5
 20
12
 11
-1.25
 21
12
  0
LINE
  5
61
100
AcDbEntity
  8
Measurements
  6
ByBlock
 62
    0
370
   -2
100
AcDbLine
 10
-0.4999999999999993
 20
21
 11
-1.249999999999999
 21
21
  0
ENDBLK
  5
52
330
50
100
AcDbEntity
  8
0
100
AcDbBlockEnd
  0
BLOCK
  5
54
330
53
100
AcDbEntity
  8
0
100
AcDbBlockBegin
  2
*D3
 70
    1
 10
0
 20
0
  3
*D3
  1

  0
LINE
  5
62
100
AcDbEntity
  8
Measurements
  6
ByBlock
 62
    0
370
   -2
100
AcDbLine
 10
0
 20
-1
 11
12
 21
-1
  0
SOLID
  5
63
100
AcDbEntity
  8
Measurements
  6
ByBlock
 62
    0
370
   -2
100
AcDbTrace
 10
0
 20
-1
 30
0
 11
0.25
 21
-0.9583715342227159
 31
0
 12
0.25
 22
-1.041628465777284
 32
0
 13
0.25
 23
-1.041628465777284
 33
0
  0
SOLID
  5
64
100
AcDbEntity
  8
Measurements
  6
ByBlock
 62
    0
370
   -2
100
AcDbTrace
 10
12
 20
-1
 30
0
 11
11.75
 21
-1.041628465777284
 31
0
 12
11.75
 22
-0.9583715342227159
 32
0
 13
11.75
 23
-0.9583715342227159
 33
0
  0
MTEXT
  5
65
100
AcDbEntity
  8
Measurements
  6
CONTINUOUS
 62
    0
370
   -2
100
AcDbMText
 10
6
 20
-0.85
 30
0
 40
0.25
 41
1.111111111111111
 71
    5
 72
    1
  1
12.0000
  7
standard
210
0
220
0
230
1
 50
0
 73
    2
 44
1
  0
LINE
  5
66
100
AcDbEntity
  8
Measurements
  6
ByBlock
 62
    0
370
   -2
100
AcDbLine
 10
0
 20
-1
 11
1.530757942277972e-017
 21
-0.75
  0
LINE
  5
67
100
AcDbEntity
  8
Measurements
  6
ByBlock
 62
    0
370
   -2
100
AcDbLine
 10
12
 20
-1
 11
12
 21
-0.75
  0
ENDBLK
  5
55
330
53
100
AcDbEntity
  8
0
100
AcDbBlockEnd
  0
BLOCK
  5
57
330
56
100
AcDbEntity
  8
0
100
AcDbBlockBegin
  2
*D2
 70
    1
 10
0
 20
0
  3
*D2
  1

  0
LINE
  5
68
100
AcDbEntity
  8
Measurements
  6
ByBlock
 62
    0
370
   -2
100
AcDbLine
 10
-1
 20
0
 11
-0.9999999999999997
 21
12
  0
SOLID
  5
69
100
AcDbEntity
  8
Measurements
  6
ByBlock
 62
    0
370
   -2
100
AcDbTrace
 10
-1
 20
0
 30
0
 11
-1.041628465777285
 21
0.25
 31
0
 12
-0.9583715342227164
 22
0.25
 32
0
 13
-0.9583715342227164
 23
0.25
 33
0
  0
SOLID
  5
6A
100
AcDbEntity
  8
Measurements
  6
ByBlock
 62
    0
370
   -2
100
AcDbTrace
 10
-0.9999999999999997
 20
12
 30
0
 11
-0.9583715342227156
 21
11.75
 31
0
 12
-1.041628465777284
 22
11.75
 32
0
 13
-1.041628465777284
 23
11.75
 33
0
  0
MTEXT
  5
6B
100
AcDbEntity
  8
Measurements
  6
CONTINUOUS
 62
    0
370
   -2
100
AcDbMText
 10
-1.15
 20
6
 30
0
 40
0.25
 41
1.111111111111111
 71
    5
 72
    1
  1
12.0000
  7
standard
210
0
220
0
230
1
 50
90
 73
    2
 44
1
  0
LINE
  5
6C
100
AcDbEntity
  8
Measurements
  6
ByBlock
 62
    0
370
   -2
100
AcDbLine
 10
-1
 20
0
 11
-1.25
 21
3.061515884555943e-017
  0
LINE
  5
6D
100
AcDbEntity
  8
Measurements
  6
ByBlock
 62
    0
370
   -2
100
AcDbLine
 10
-1
 20
12
 11
-1.25
 21
12
  0
ENDBLK
  5
58
330
56
100
AcDbEntity
  8
0
100
AcDbBlockEnd
  0
BLOCK
  5
5A
330
59
100
AcDbEntity
  8
0
100
AcDbBlockBegin
  2
Pillow
 70
    0
 10
0
 20
0
  3
Pillow
  1

  0
LINE
  5
6E
100
AcDbEntity
  8
0
  6
CONTINUOUS
 62
    7
370
   -1
100
AcDbLine
 10
-6.6851279161
 20
2.2640477814
 11
-6.6851279161
 21
0.9080477814000005
  0
LINE
  5
6F
100
AcDbEntity
  8
0
  6
CONTINUOUS
 62
    7
370
   -1
100
AcDbLine
 10
-5.3927355329
 20
1.195173903300001
 11
-5.3770830851
 21
1.0494916683
  0
LINE
  5
70
100
AcDbEntity
  8
0
  6
CONTINUOUS
 62
    7
370
   -1
100
AcDbLine
 10
-5.3770830851
 20
2.122603894399999
 11
-5.3927355329
 21
1.9769216594
  0
LINE
  5
71
100
AcDbEntity
  8
0
  6
CONTINUOUS
 62
    7
370
   -1
100
AcDbLine
 10
-5.0315279161
 20
0.9080477814000005
 11
-5.0315279161
 21
0.9176477813999995
  0
LINE
  5
72
100
AcDbEntity
  8
0
  6
CONTINUOUS
 62
    7
370
   -1
100
AcDbLine
 10
-5.0315279161
 20
2.2544477814
 11
-5.0315279161
 21
2.2640477814
  0
LINE
  5
73
100
AcDbEntity
  8
0
  6
CONTINUOUS
 62
    7
370
   -1
100
AcDbLine
 10
-6.615127916100001
 20
0.8380477814000002
 11
-5.1015279161
 21
0.8380477814000002
  0
LINE
  5
74
100
AcDbEntity
  8
0
  6
CONTINUOUS
 62
    7
370
   -1
100
AcDbLine
 10
-2.5991279161
 20
0.8380477814000002
 11
-1.243127916100001
 21
0.8380477814000002
  0
LINE
  5
75
100
AcDbEntity
  8
0
  6
CONTINUOUS
 62
    7
370
   -1
100
AcDbLine
 10
-4.5250161661
 20
1.023047781400001
 11
-4.5250161661
 21
1.122210709399999
  0
LINE
  5
76
100
AcDbEntity
  8
0
  6
CONTINUOUS
 62
    7
370
   -1
100
AcDbLine
 10
-4.5250161661
 20
2.049883858499999
 11
-4.5250161661
 21
2.362047781399999
  0
LINE
  5
77
100
AcDbEntity
  8
0
  6
CONTINUOUS
 62
    7
370
   -1
100
AcDbLine
 10
-2.3936304564
 20
0.9876477813999998
 11
-2.619040448
 21
0.9876477813999998
  0
LINE
  5
78
100
AcDbEntity
  8
0
  6
CONTINUOUS
 62
    7
370
   -1
100
AcDbLine
 10
-5.0816153843
 20
0.9876477813999998
 11
-5.3070253759
 21
0.9876477813999998
  0
LINE
  5
79
100
AcDbEntity
  8
0
  6
CONTINUOUS
 62
    7
370
   -1
100
AcDbLine
 10
-4.9615279161
 20
0.9876477813999998
 11
-2.7391279161
 21
0.9876477813999998
  0
LINE
  5
7A
100
AcDbEntity
  8
0
  6
CONTINUOUS
 62
    7
370
   -1
100
AcDbLine
 10
-4.5250161661
 20
1.023047781400001
 11
-3.1756396661
 21
1.023047781400001
  0
LINE
  5
7B
100
AcDbEntity
  8
0
  6
CONTINUOUS
 62
    7
370
   -1
100
AcDbLine
 10
-2.7391279161
 20
2.181524641699999
 11
-2.7383478377
 21
2.1817502244
  0
LINE
  5
7C
100
AcDbEntity
  8
0
  6
CONTINUOUS
 62
    7
370
   -1
100
AcDbLine
 10
-1.665327916100001
 20
1.330047781399999
 11
-1.9013279161
 21
1.330047781399999
  0
LINE
  5
7D
100
AcDbEntity
  8
0
  6
CONTINUOUS
 62
    7
370
   -1
100
AcDbLine
 10
-5.7993279161
 20
1.330047781399999
 11
-6.0353279161
 21
1.330047781399999
  0
LINE
  5
7E
100
AcDbEntity
  8
0
  6
CONTINUOUS
 62
    7
370
   -1
100
AcDbLine
 10
-2.7383469302
 20
0.9903453536000004
 11
-2.7391279161
 21
0.9905709210999998
  0
LWPOLYLINE
  5
7F
100
AcDbEntity
  8
0
  6
CONTINUOUS
 62
    7
370
   -1
100
AcDbPolyline
 90
   46
 70
    0
 43
0
 10
-2.6882753808
 20
2.1003986154
 10
-2.6895770908
 20
2.099887323700001
 10
-2.6960366588
 20
2.097704398599999
 10
-2.7070172795
 20
2.094704849399999
 10
-2.7223876973
 20
2.0912291246
 10
-2.7422343071
 20
2.0874454382
 10
-2.7666312558
 20
2.083469642300001
 10
-2.7955812772
 20
2.079393942999999
 10
-2.8290407116
 20
2.0752908101
 10
-2.8669975137
 20
2.071211282
 10
-2.9095216518
 20
2.0671895456
 10
-2.9566736034
 20
2.063257743299999
 10
-3.0084983016
 20
2.0594475096
 10
-3.0650250552
 20
2.055790266500001
 10
-3.1262467162
 20
2.052319106800001
 10
-3.1921318265
 20
2.049067340700001
 10
-3.2626049165
 20
2.046070009999999
 10
-3.3374656277
 20
2.043365786300001
 10
-3.4162913452
 20
2.040996999200001
 10
-3.4985588838
 20
2.039002251199999
 10
-3.5836771567
 20
2.0374139605
 10
-3.6709898182
 20
2.036258783699999
 10
-3.7597966184
 20
2.035555632199999
 10
-3.8493620076
 20
2.0353166826
 10
-3.9389340611
 20
2.035545559999999
 10
-4.0277608734
 20
2.0362387575
 10
-4.1151064761
 20
2.0373842432
 10
-4.2002700136
 20
2.0389631888
 10
-4.2825944776
 20
2.040949098500001
 10
-4.3614874043
 20
2.0433095927
 10
-4.4364249219
 20
2.0460062349
 10
-4.5069816213
 20
2.0489966517
 10
-4.5729549225
 20
2.0522421985
 10
-4.6342677958
 20
2.0557077542
 10
-4.6908886067
 20
2.059360056499999
 10
-4.7428097311
 20
2.0631660319
 10
-4.7900593269
 20
2.067094212500001
 10
-4.8326829018
 20
2.071113087600001
 10
-4.8707396646
 20
2.0751904851
 10
-4.9043002643
 20
2.0792924182
 10
-4.9333544153
 20
2.083368352200001
 10
-4.9578578076
 20
2.0873463148
 10
-4.9778137863
 20
2.0911350097
 10
-4.993293921
 20
2.0946193872
 10
-5.0043875181
 20
2.097634035
 10
-5.0113190383
 20
2.0999810001
  0
LWPOLYLINE
  5
80
100
AcDbEntity
  8
0
  6
CONTINUOUS
 62
    7
370
   -1
100
AcDbPolyline
 90
   46
 70
    0
 43
0
 10
-5.0124509355
 20
1.0716595364
 10
-5.0109012388
 20
1.0722765101
 10
-5.0042273286
 20
1.074509983
 10
-4.9930282224
 20
1.0775417662
 10
-4.9774334597
 20
1.081039008599999
 10
-4.9573702465
 20
1.0848346755
 10
-4.9327797039
 20
1.0888137692
 10
-4.9036601643
 20
1.0928868199
 10
-4.8700510123
 20
1.0969837692
 10
-4.8319569881
 20
1.101055354
 10
-4.7893077894
 20
1.1050678362
 10
-4.7420439993
 20
1.108989280499999
 10
-4.6901211741
 20
1.112788267499999
 10
-4.6335110586
 20
1.11643351
 10
-4.5722214732
 20
1.1198920672
 10
-4.506284352
 20
1.123130783400001
 10
-4.4357761648
 20
1.1261147153
 10
-4.3609010231
 20
1.1288052605
 10
-4.2820836207
 20
1.131160251900001
 10
-4.1998467254
 20
1.1331413869
 10
-4.1147808681
 20
1.134716467300001
 10
-4.0275409914
 20
1.135859099499999
 10
-3.9388255458
 20
1.1365505639
 10
-3.8493678433
 20
1.13677888
 10
-3.7599171112
 20
1.136540566100001
 10
-3.6712223644
 20
1.135839236100001
 10
-3.584016408
 20
1.1346870021
 10
-3.4989969231
 20
1.1331026983
 10
-3.4168178966
 20
1.131112836
 10
-3.3380686218
 20
1.1287497013
 10
-3.2632706055
 20
1.126051691000001
 10
-3.1928462986
 20
1.123060995099999
 10
-3.1269969835
 20
1.119816167
 10
-3.0657982573
 20
1.1163521346
 10
-3.0092815175
 20
1.1127020616
 10
-2.9574540676
 20
1.1088988975
 10
-2.9102871123
 20
1.104973938100001
 10
-2.8677359666
 20
1.100958647500001
 10
-2.8297408306
 20
1.096885010599999
 10
-2.7962315773
 20
1.092786913099999
 10
-2.7672144005
 20
1.0887140751
 10
-2.7427286645
 20
1.0847370788
 10
-2.7227725774
 20
1.0809461858
 10
-2.7072860107
 20
1.077457384500001
 10
-2.6961983267
 20
1.074440323499999
 10
-2.6892999262
 20
1.072100042400001
  0
LINE
  5
81
100
AcDbEntity
  8
0
  6
CONTINUOUS
 62
    7
370
   -1
100
AcDbLine
 10
-4.9615279161
 20
0.9905709210999998
 11
-4.9623079945
 21
0.9903453382999992
  0
LINE
  5
82
100
AcDbEntity
  8
0
  6
CONTINUOUS
 62
    7
370
   -1
100
AcDbLine
 10
-6.0353279161
 20
1.8420477814
 11
-5.7993279161
 21
1.8420477814
  0
LINE
  5
83
100
AcDbEntity
  8
0
  6
CONTINUOUS
 62
    7
370
   -1
100
AcDbLine
 10
-1.9013279161
 20
1.8420477814
 11
-1.665327916100001
 21
1.8420477814
  0
LINE
  5
84
100
AcDbEntity
  8
0
  6
CONTINUOUS
 62
    7
370
   -1
100
AcDbLine
 10
-4.9623089021
 20
2.181750209100001
 11
-4.9615279161
 21
2.181524641699999
  0
LINE
  5
85
100
AcDbEntity
  8
0
  6
CONTINUOUS
 62
    7
370
   -1
100
AcDbLine
 10
-5.3070253759
 20
2.184447781399999
 11
-5.0816153843
 21
2.184447781399999
  0
LINE
  5
86
100
AcDbEntity
  8
0
  6
CONTINUOUS
 62
    7
370
   -1
100
AcDbLine
 10
-4.9615279161
 20
2.184447781399999
 11
-4.5250161661
 21
2.184447781399999
  0
LINE
  5
87
100
AcDbEntity
  8
0
  6
CONTINUOUS
 62
    7
370
   -1
100
AcDbLine
 10
-3.1756396661
 20
2.184447781399999
 11
-2.7391279161
 21
2.184447781399999
  0
LINE
  5
88
100
AcDbEntity
  8
0
  6
CONTINUOUS
 62
    7
370
   -1
100
AcDbLine
 10
-2.619040448
 20
2.184447781399999
 11
-2.3936304564
 21
2.184447781399999
  0
LINE
  5
89
100
AcDbEntity
  8
0
  6
CONTINUOUS
 62
    7
370
   -1
100
AcDbLine
 10
-3.1756396661
 20
1.023047781400001
 11
-3.1756396661
 21
1.122213111300001
  0
LINE
  5
8A
100
AcDbEntity
  8
0
  6
CONTINUOUS
 62
    7
370
   -1
100
AcDbLine
 10
-3.1756396661
 20
2.0498813129
 11
-3.1756396661
 21
2.362047781399999
  0
LINE
  5
8B
100
AcDbEntity
  8
0
  6
CONTINUOUS
 62
    7
370
   -1
100
AcDbLine
 10
-1.243127916100001
 20
2.334047781400001
 11
-2.5991279161
 21
2.334047781400001
  0
LINE
  5
8C
100
AcDbEntity
  8
0
  6
CONTINUOUS
 62
    7
370
   -1
100
AcDbLine
 10
-5.1015279161
 20
2.334047781400001
 11
-6.615127916100001
 21
2.334047781400001
  0
LINE
  5
8D
100
AcDbEntity
  8
0
  6
CONTINUOUS
 62
    7
370
   -1
100
AcDbLine
 10
-4.5250161661
 20
2.362047781399999
 11
-3.1756396661
 21
2.362047781399999
  0
LINE
  5
8E
100
AcDbEntity
  8
0
  6
CONTINUOUS
 62
    7
370
   -1
100
AcDbLine
 10
-2.6691279161
 20
2.2640477814
 11
-2.6691279161
 21
2.2544477814
  0
LINE
  5
8F
100
AcDbEntity
  8
0
  6
CONTINUOUS
 62
    7
370
   -1
100
AcDbLine
 10
-2.6691279161
 20
0.9176477813999995
 11
-2.6691279161
 21
0.9080477814000005
  0
LINE
  5
90
100
AcDbEntity
  8
0
  6
CONTINUOUS
 62
    7
370
   -1
100
AcDbLine
 10
-2.3235727471
 20
2.122603894399999
 11
-2.3079202993
 21
1.9769216594
  0
LINE
  5
91
100
AcDbEntity
  8
0
  6
CONTINUOUS
 62
    7
370
   -1
100
AcDbLine
 10
-2.3079202993
 20
1.195173903300001
 11
-2.3235727471
 21
1.0494916683
  0
LINE
  5
92
100
AcDbEntity
  8
0
  6
CONTINUOUS
 62
    7
370
   -1
100
AcDbLine
 10
-1.1731279161
 20
0.9080477814000005
 11
-1.1731279161
 21
2.2640477814
  0
ARC
  5
93
100
AcDbEntity
  8
0
  6
CONTINUOUS
 62
    7
370
   -1
100
AcDbCircle
 10
-5.5433279161
 20
1.5860477814
 40
0.41888
100
AcDbArc
 50
291.0702288122
 51
68.9297711878
  0
ARC
  5
94
100
AcDbEntity
  8
0
  6
CONTINUOUS
 62
    7
370
   -1
100
AcDbCircle
 10
-2.1573279161
 20
1.5860477814
 40
0.41888
100
AcDbArc
 50
111.0702288122
 51
248.9297711878
  0
ARC
  5
95
100
AcDbEntity
  8
0
  6
CONTINUOUS
 62
    7
370
   -1
100
AcDbCircle
 10
-6.0353279161
 20
1.5860477814
 40
0.256
100
AcDbArc
 50
90
 51
270
  0
ARC
  5
96
100
AcDbEntity
  8
0
  6
CONTINUOUS
 62
    7
370
   -1
100
AcDbCircle
 10
-5.7993279161
 20
1.5860477814
 40
0.256
100
AcDbArc
 50
270
 51
90
  0
ARC
  5
97
100
AcDbEntity
  8
0
  6
CONTINUOUS
 62
    7
370
   -1
100
AcDbCircle
 10
-1.665327916100001
 20
1.5860477814
 40
0.256
100
AcDbArc
 50
270
 51
90
  0
ARC
  5
98
100
AcDbEntity
  8
0
  6
CONTINUOUS
 62
    7
370
   -1
100
AcDbCircle
 10
-1.9013279161
 20
1.5860477814
 40
0.256
100
AcDbArc
 50
90
 51
270
  0
ARC
  5
99
100
AcDbEntity
  8
0
  6
CONTINUOUS
 62
    7
370
   -1
100
AcDbCircle
 10
-2.5991279161
 20
2.2640477814
 40
0.07000000000000001
100
AcDbArc
 50
90
 51
180
  0
ARC
  5
9A
100
AcDbEntity
  8
0
  6
CONTINUOUS
 62
    7
370
   -1
100
AcDbCircle
 10
-5.1015279161
 20
2.2640477814
 40
0.07000000000000001
100
AcDbArc
 50
0
 51
90
  0
ARC
  5
9B
100
AcDbEntity
  8
0
  6
CONTINUOUS
 62
    7
370
   -1
100
AcDbCircle
 10
-2.7391279161
 20
2.2544477814
 40
0.07000000000000001
100
AcDbArc
 50
270
 51
360
  0
ARC
  5
9C
100
AcDbEntity
  8
0
  6
CONTINUOUS
 62
    7
370
   -1
100
AcDbCircle
 10
-6.615127916100001
 20
2.2640477814
 40
0.07000000000000001
100
AcDbArc
 50
90
 51
180
  0
ARC
  5
9D
100
AcDbEntity
  8
0
  6
CONTINUOUS
 62
    7
370
   -1
100
AcDbCircle
 10
-6.615127916100001
 20
0.9080477814000005
 40
0.07000000000000001
100
AcDbArc
 50
180
 51
270
  0
ARC
  5
9E
100
AcDbEntity
  8
0
  6
CONTINUOUS
 62
    7
370
   -1
100
AcDbCircle
 10
-4.9615279161
 20
2.2544477814
 40
0.07000000000000001
100
AcDbArc
 50
180
 51
270
  0
ARC
  5
9F
100
AcDbEntity
  8
0
  6
CONTINUOUS
 62
    7
370
   -1
100
AcDbCircle
 10
-1.243127916100001
 20
2.2640477814
 40
0.07000000000000001
100
AcDbArc
 50
0
 51
90
  0
ARC
  5
A0
100
AcDbEntity
  8
0
  6
CONTINUOUS
 62
    7
370
   -1
100
AcDbCircle
 10
-2.7391279161
 20
0.9176477813999995
 40
0.07000000000000001
100
AcDbArc
 50
0
 51
90
  0
ARC
  5
A1
100
AcDbEntity
  8
0
  6
CONTINUOUS
 62
    7
370
   -1
100
AcDbCircle
 10
-4.9615279161
 20
0.9176477813999995
 40
0.07000000000000001
100
AcDbArc
 50
90
 51
180
  0
ARC
  5
A2
100
AcDbEntity
  8
0
  6
CONTINUOUS
 62
    7
370
   -1
100
AcDbCircle
 10
-1.243127916100001
 20
0.9080477814000005
 40
0.07000000000000001
100
AcDbArc
 50
270
 51
360
  0
ARC
  5
A3
100
AcDbEntity
  8
0
  6
CONTINUOUS
 62
    7
370
   -1
100
AcDbCircle
 10
-5.1015279161
 20
0.9080477814000005
 40
0.07000000000000001
100
AcDbArc
 50
270
 51
360
  0
ARC
  5
A4
100
AcDbEntity
  8
0
  6
CONTINUOUS
 62
    7
370
   -1
100
AcDbCircle
 10
-2.5991279161
 20
0.9080477814000005
 40
0.07000000000000001
100
AcDbArc
 50
180
 51
270
  0
SPLINE
  5
A5
100
AcDbEntity
  8
0
  6
CONTINUOUS
 62
    7
370
   -1
100
AcDbSpline
210
0
220
0
230
0
 70
    8
 71
    3
 72
   14
 73
   10
 74
    0
 42
1e-007
 43
1e-007
 40
0
 40
0
 40
0
 40
0
 40
0.182696691
 40
0.3246889593
 40
0.5070380573
 40
0.5855426174
 40
0.6863981202
 40
0.8227125648
 40
1
 40
1
 40
1
 40
1
 10
-4.9870663746
 20
2.189272731399999
 30
0
 10
-4.9870087049
 20
2.1892501339
 30
0
 10
-4.9869065579
 20
2.1892050534
 30
0
 10
-4.9867621813
 20
2.189121364
 30
0
 10
-4.9866522722
 20
2.1890033429
 30
0
 10
-4.986688776
 20
2.188876966700001
 30
0
 10
-4.9867657831
 20
2.188799878499999
 30
0
 10
-4.9868847549
 20
2.1887243114
 30
0
 10
-4.9869820169
 20
2.1886805612
 30
0
 10
-4.9870377109
 20
2.1886579603
 30
0
  0
SPLINE
  5
A6
100
AcDbEntity
  8
0
  6
CONTINUOUS
 62
    7
370
   -1
100
AcDbSpline
210
0
220
0
230
0
 70
    8
 71
    3
 72
   24
 73
   20
 74
    0
 42
1e-007
 43
1e-007
 40
0
 40
0
 40
0
 40
0
 40
0.0042446416
 40
0.0097342804
 40
0.0239769157
 40
0.0417188251
 40
0.0621693174
 40
0.0847871919
 40
0.1090656758
 40
0.1615570141
 40
0.2181686477
 40
0.2781383127
 40
0.3410168897
 40
0.4065388307
 40
0.4744962925
 40
0.544711861
 40
0.6910849789
 40
0.843775258
 40
1
 40
1
 40
1
 40
1
 10
-4.9870377109
 20
2.1886579603
 30
0
 10
-4.9871619342
 20
2.1886075501
 30
0
 10
-4.9874559738
 20
2.1885152012
 30
0
 10
-4.9881924191
 20
2.1883384251
 30
0
 10
-4.9893599023
 20
2.1881377867
 30
0
 10
-4.9910007069
 20
2.187913772
 30
0
 10
-4.9929093067
 20
2.187697458000001
 30
0
 10
-4.99502615
 20
2.187488934199999
 30
0
 10
-4.9981530255
 20
2.1872122704
 30
0
 10
-5.0023535307
 20
2.186890398599999
 30
0
 10
-5.0076817411
 20
2.186535512300001
 30
0
 10
-5.0133401136
 20
2.1862039165
 30
0
 10
-5.0192816068
 20
2.185895590099999
 30
0
 10
-5.0254768875
 20
2.185611956000001
 30
0
 10
-5.031905224
 20
2.1853542743
 30
0
 10
-5.0408869374
 20
2.185043458599999
 30
0
 10
-5.0525463106
 20
2.1847340375
 30
0
 10
-5.0669244163
 20
2.184502178600001
 30
0
 10
-5.0766812106
 20
2.184447781399999
 30
0
 10
-5.0816153843
 20
2.184447781399999
 30
0
  0
SPLINE
  5
A7
100
AcDbEntity
  8
0
  6
CONTINUOUS
 62
    7
370
   -1
100
AcDbSpline
210
0
220
0
230
0
 70
    8
 71
    3
 72
   35
 73
   31
 74
    0
 42
1e-007
 43
1e-007
 40
0
 40
0
 40
0
 40
0
 40
0.1649561902
 40
0.3256973551
 40
0.403428345
 40
0.479011946
 40
0.5521924505
 40
0.6227358909
 40
0.6904246635
 40
0.7231100941
 40
0.754964241
 40
0.7859394129
 40
0.8159440936
 40
0.8448566383
 40
0.8725542353
 40
0.8988242363
 40
0.9232852706
 40
0.9455392065
 40
0.9649978299999999
 40
0.9733296936
 40
0.9805272814
 40
0.9864453575
 40
0.9909589233
 40
0.9940556919
 40
0.9951243957
 40
0.9959497223
 40
0.9966768288
 40
0.9975080011
 40
0.9985914525
 40
1
 40
1
 40
1
 40
1
 10
-5.0816153843
 20
0.9876477813999998
 30
0
 10
-5.0763590491
 20
0.9876477813999998
 30
0
 10
-5.0659806056
 20
0.9875861727000004
 30
0
 10
-5.0531269597
 20
0.9873658665999994
 30
0
 10
-5.0431227883
 20
0.9871099639000001
 30
0
 10
-5.0359089835
 20
0.9868849207999997
 30
0
 10
-5.0289254577
 20
0.9866271199999996
 30
0
 10
-5.0221949228
 20
0.9863386566999992
 30
0
 10
-5.0167551364
 20
0.9860715546000005
 30
0
 10
-5.0125478719
 20
0.9858429762000007
 30
0
 10
-5.0095093983
 20
0.9856665957999997
 30
0
 10
-5.0065569011
 20
0.9854835292999997
 30
0
 10
-5.0036987693
 20
0.9852935993000003
 30
0
 10
-5.000945827
 20
0.9850963678000006
 30
0
 10
-4.9983127505
 20
0.9848919762000001
 30
0
 10
-4.9958225521
 20
0.9846805529000004
 30
0
 10
-4.9935072583
 20
0.9844604442999998
 30
0
 10
-4.9914110811
 20
0.9842310659999995
 30
0
 10
-4.989829355
 20
0.9840266210999999
 30
0
 10
-4.9887282028
 20
0.9838509807999998
 30
0
 10
-4.9880567133
 20
0.9837240613000002
 30
0
 10
-4.9875089049
 20
0.9835963323999994
 30
0
 10
-4.987098219
 20
0.9834669366999993
 30
0
 10
-4.9868440322
 20
0.9833493174000001
 30
0
 10
-4.9867226299
 20
0.9832450187999999
 30
0
 10
-4.9866777613
 20
0.9831712096
 30
0
 10
-4.9866784463
 20
0.9830910947000007
 30
0
 10
-4.9867249458
 20
0.9830175179000005
 30
0
 10
-4.9868066435
 20
0.9829491524999998
 30
0
 10
-4.9868759212
 20
0.9829096211999993
 30
0
 10
-4.9869159625
 20
0.9828893428000001
 30
0
  0
SPLINE
  5
A8
100
AcDbEntity
  8
0
  6
CONTINUOUS
 62
    7
370
   -1
100
AcDbSpline
210
0
220
0
230
0
 70
    8
 71
    3
 72
   24
 73
   20
 74
    0
 42
1e-007
 43
1e-007
 40
0
 40
0
 40
0
 40
0
 40
0.156224742
 40
0.3089150211
 40
0.455288139
 40
0.5255037075
 40
0.5934611693
 40
0.6589831103
 40
0.7218616873
 40
0.7818313523
 40
0.8384429859
 40
0.8909343242
 40
0.9152128081000001
 40
0.9378306826
 40
0.9582811749
 40
0.9760230843
 40
0.9902657196
 40
0.9957553584
 40
1
 40
1
 40
1
 40
1
 10
-2.619040448
 20
0.9876477813999998
 30
0
 10
-2.6239746216
 20
0.9876477813999998
 30
0
 10
-2.6337314159
 20
0.9875933841000002
 30
0
 10
-2.6481095217
 20
0.9873615253000008
 30
0
 10
-2.6597688949
 20
0.9870521041
 30
0
 10
-2.6687506083
 20
0.9867412884999993
 30
0
 10
-2.6751789448
 20
0.9864836067000002
 30
0
 10
-2.6813742255
 20
0.9861999725999997
 30
0
 10
-2.6873157187
 20
0.9858916463000007
 30
0
 10
-2.6929740912
 20
0.9855600504000002
 30
0
 10
-2.6983023016
 20
0.9852051641999999
 30
0
 10
-2.7025028067
 20
0.9848832922999993
 30
0
 10
-2.7056296823
 20
0.9846066284999999
 30
0
 10
-2.7077465256
 20
0.9843981047000003
 30
0
 10
-2.7096551254
 20
0.9841817906999992
 30
0
 10
-2.71129593
 20
0.9839577760000005
 30
0
 10
-2.7124634132
 20
0.9837571376999996
 30
0
 10
-2.7131998585
 20
0.9835803615999996
 30
0
 10
-2.7134938981
 20
0.9834880127000005
 30
0
 10
-2.7136181213
 20
0.9834376024000004
 30
0
  0
SPLINE
  5
A9
100
AcDbEntity
  8
0
  6
CONTINUOUS
 62
    7
370
   -1
100
AcDbSpline
210
0
220
0
230
0
 70
    8
 71
    3
 72
   14
 73
   10
 74
    0
 42
1e-007
 43
1e-007
 40
0
 40
0
 40
0
 40
0
 40
0.1772874352
 40
0.3136018798
 40
0.4144573826
 40
0.4929619427
 40
0.6753110407
 40
0.817303309
 40
1
 40
1
 40
1
 40
1
 10
-2.7136181213
 20
0.9834376024000004
 30
0
 10
-2.7136738154
 20
0.9834150014999992
 30
0
 10
-2.7137710774
 20
0.9833712513999995
 30
0
 10
-2.7138900492
 20
0.9832956841999998
 30
0
 10
-2.7139670562
 20
0.9832185961000004
 30
0
 10
-2.71400356
 20
0.9830922198999996
 30
0
 10
-2.713893651
 20
0.9829741986999991
 30
0
 10
-2.7137492744
 20
0.9828905094000007
 30
0
 10
-2.7136471274
 20
0.9828454288999993
 30
0
 10
-2.7135894577
 20
0.9828228313
 30
0
  0
LINE
  5
AA
100
AcDbEntity
  8
0
  6
CONTINUOUS
 62
    7
370
   -1
100
AcDbLine
 10
-2.71908665
 20
0.9847175037000007
 11
-2.7383469302
 21
0.9903453536000004
  0
LINE
  5
AB
100
AcDbEntity
  8
0
  6
CONTINUOUS
 62
    7
370
   -1
100
AcDbLine
 10
-4.9623089021
 20
0.9903453536000004
 11
-4.9815691823
 21
0.9847175037000007
  0
LINE
  5
AC
100
AcDbEntity
  8
0
  6
CONTINUOUS
 62
    7
370
   -1
100
AcDbLine
 10
-4.9815691823
 20
2.1873780591
 11
-4.9623089021
 21
2.181750209100001
  0
LINE
  5
AD
100
AcDbEntity
  8
0
  6
CONTINUOUS
 62
    7
370
   -1
100
AcDbLine
 10
-2.7383469302
 20
2.181750209100001
 11
-2.71908665
 21
2.1873780591
  0
SPLINE
  5
AE
100
AcDbEntity
  8
0
  6
CONTINUOUS
 62
    7
370
   -1
100
AcDbSpline
210
0
220
0
230
0
 70
    8
 71
    3
 72
   38
 73
   34
 74
    0
 42
1e-007
 43
1e-007
 40
0
 40
0
 40
0
 40
0
 40
0.1659170201
 40
0.3275317892
 40
0.4056507669
 40
0.4815831596
 40
0.5550683654
 40
0.6258690881
 40
0.6937613882
 40
0.7265241025
 40
0.7584378497000001
 40
0.7894507214000001
 40
0.8194605263
 40
0.8483426025
 40
0.8759682885
 40
0.9020830531
 40
0.926287853
 40
0.9375475281
 40
0.9481735947
 40
0.9580504457
 40
0.9670207967
 40
0.9749284658
 40
0.9816211793
 40
0.9869555665
 40
0.9890798907
 40
0.9908434792
 40
0.9922594179000001
 40
0.9933562317
 40
0.9941994329
 40
0.9949310693
 40
0.9957571518
 40
0.9968336771
 40
1
 40
1
 40
1
 40
1
 10
-2.619040448
 20
2.184447781399999
 30
0
 10
-2.6243364872
 20
2.184447781399999
 30
0
 10
-2.6347913255
 20
2.1845103019
 30
0
 10
-2.6477379705
 20
2.184733830000001
 30
0
 10
-2.657810675
 20
2.1849934047
 30
0
 10
-2.6650700535
 20
2.185221586200001
 30
0
 10
-2.6720945611
 20
2.185482909999999
 30
0
 10
-2.6788609768
 20
2.1857752608
 30
0
 10
-2.6843271575
 20
2.186045937699999
 30
0
 10
-2.688552387
 20
2.1862776348
 30
0
 10
-2.6916015454
 20
2.186456376900001
 30
0
 10
-2.6945622613
 20
2.1866418767
 30
0
 10
-2.6974255491
 20
2.186834418
 30
0
 10
-2.7001799347
 20
2.187034435699999
 30
0
 10
-2.7028091059
 20
2.187241544200001
 30
0
 10
-2.7052878646
 20
2.187456089499999
 30
0
 10
-2.7072442595
 20
2.18764674
 30
0
 10
-2.7087067568
 20
2.187806691400001
 30
0
 10
-2.7097135599
 20
2.187926209
 30
0
 10
-2.7106464373
 20
2.188048157700001
 30
0
 10
-2.7114913643
 20
2.1881726452
 30
0
 10
-2.7122331415
 20
2.188299246
 30
0
 10
-2.7128564152
 20
2.1884277889
 30
0
 10
-2.7132939533
 20
2.1885422852
 30
0
 10
-2.7135718329
 20
2.1886400493
 30
0
 10
-2.7137270659
 20
2.188708077199999
 30
0
 10
-2.7138457579
 20
2.188776473200001
 30
0
 10
-2.713928431
 20
2.1888455261
 30
0
 10
-2.7139763896
 20
2.188919328300001
 30
0
 10
-2.7139787349
 20
2.1890001886
 30
0
 10
-2.7139338522
 20
2.1890749232
 30
0
 10
-2.7138096878
 20
2.1891802958
 30
0
 10
-2.7136835597
 20
2.1892358581
 30
0
 10
-2.7135894577
 20
2.189272731399999
 30
0
  0
ELLIPSE
  5
AF
100
AcDbEntity
  8
0
  6
CONTINUOUS
 62
    7
370
   -1
100
AcDbEllipse
 10
-2.3946294519
 20
1.0578187142
 30
0
 11
0.0677683172
 21
-0.0231627154
 31
0
 40
0.9774157009000001
 41
5.048787779679589
 42
0.2174504800999997
  0
ELLIPSE
  5
B0
100
AcDbEntity
  8
0
  6
CONTINUOUS
 62
    7
370
   -1
100
AcDbEllipse
 10
-2.3946294519
 20
2.114276848499999
 30
0
 11
0.0677683172
 21
0.0231627154
 31
0
 40
0.9774157009000001
 41
6.065734827079586
 42
1.234397527499997
  0
ELLIPSE
  5
B1
100
AcDbEntity
  8
0
  6
CONTINUOUS
 62
    7
370
   -1
100
AcDbEllipse
 10
-5.3060263804
 20
2.114276848499999
 30
0
 11
0.0677683172
 21
-0.0231627154
 31
0
 40
0.9774157009000001
 41
1.907195126099997
 42
3.359043133699998
  0
ELLIPSE
  5
B2
100
AcDbEntity
  8
0
  6
CONTINUOUS
 62
    7
370
   -1
100
AcDbEllipse
 10
-5.3060263804
 20
1.0578187142
 30
0
 11
0.0677683172
 21
0.0231627154
 31
0
 40
0.9774157009000001
 41
2.924142173400001
 42
4.375990181100002
  0
ENDBLK
  5
5B
330
59
100
AcDbEntity
  8
0
100
AcDbBlockEnd
  0
ENDSEC
  0
SECTION
  2
ENTITIES
  0
CIRCLE
  5
B3
100
AcDbEntity
  8
Base
  6
ByLayer
 62
  256
370
   -1
100
AcDbCircle
 10
4.030000000000001
 20
8.5
 40
0.25
  0
CIRCLE
  5
B4
100
AcDbEntity
  8
Base
  6
ByLayer
 62
  256
370
   -1
100
AcDbCircle
 10
6
 20
10.47
 40
0.25
  0
CIRCLE
  5
B5
100
AcDbEntity
  8
Base
  6
ByLayer
 62
  256
370
   -1
100
AcDbCircle
 10
6
 20
6.53
 40
0.25
  0
CIRCLE
  5
B6
100
AcDbEntity
  8
Base
  6
ByLayer
 62
  256
370
   -1
100
AcDbCircle
 10
7.970000000000001
 20
8.5
 40
0.25
  0
CIRCLE
  5
B7
100
AcDbEntity
  8
Base
  6
ByLayer
 62
  256
370
   -1
100
AcDbCircle
 10
6
 20
8.5
 40
1
  0
LINE
  5
B8
100
AcDbEntity
  8
Base
  6
ByLayer
 62
  256
370
   -1
100
AcDbLine
 10
0
 20
0
 11
12
 21
0
  0
LINE
  5
B9
100
AcDbEntity
  8
Base
  6
ByLayer
 62
  256
370
   -1
100
AcDbLine
 10
0
 20
12
 11
0
 21
0
  0
LINE
  5
BA
100
AcDbEntity
  8
Base
  6
ByLayer
 62
  256
370
   -1
100
AcDbLine
 10
12
 20
0
 11
12
 21
8
  0
LINE
  5
BB
100
AcDbEntity
  8
Base
  6
ByLayer
 62
  256
370
   -1
100
AcDbLine
 10
12
 20
12
 11
12
 21
9
  0
CIRCLE
  5
BC
100
AcDbEntity
  8
Base
  6
ByLayer
 62
  256
370
   -1
100
AcDbCircle
 10
12.375
 20
8.5
 40
0.15625
  0
LINE
  5
BD
100
AcDbEntity
  8
Base
  6
ByLayer
 62
  256
370
   -1
100
AcDbLine
 10
12.375
 20
8.343749999999934
 11
12.375
 21
8.656249999999883
  0
LINE
  5
BE
100
AcDbEntity
  8
Base
  6
ByLayer
 62
  256
370
   -1
100
AcDbLine
 10
12.8
 20
9
 11
12.8
 21
8
  0
LINE
  5
BF
100
AcDbEntity
  8
Base
  6
ByLayer
 62
  256
370
   -1
100
AcDbLine
 10
12
 20
9
 11
12.8
 21
9
  0
LINE
  5
C0
100
AcDbEntity
  8
Base
  6
ByLayer
 62
  256
370
   -1
100
AcDbLine
 10
12.8
 20
8
 11
12
 21
8
  0
LINE
  5
C1
100
AcDbEntity
  8
Base
  6
ByLayer
 62
  256
370
   -1
100
AcDbLine
 10
6.000000000000001
 20
5.699999999999997
 11
6.000000000000001
 21
11.29999999999998
  0
LINE
  5
C2
100
AcDbEntity
  8
Base
  6
ByLayer
 62
  256
370
   -1
100
AcDbLine
 10
0.7800000000000001
 20
4.564
 11
0.7800000000000005
 21
5.311999999999999
  0
LINE
  5
C3
100
AcDbEntity
  8
Base
  6
ByLayer
 62
  256
370
   -1
100
AcDbLine
 10
0.524
 20
4.938
 11
1.036
 21
4.938
  0
LINE
  5
C4
100
AcDbEntity
  8
Base
  6
ByLayer
 62
  256
370
   -1
100
AcDbLine
 10
1.036
 20
5.055999999999999
 11
1.036
 21
4.82
  0
LINE
  5
C5
100
AcDbEntity
  8
Base
  6
ByLayer
 62
  256
370
   -1
100
AcDbLine
 10
0.524
 20
4.82
 11
0.524
 21
5.055999999999999
  0
ARC
  5
C6
100
AcDbEntity
  8
Base
  6
ByLayer
 62
  256
370
   -1
100
AcDbCircle
 10
0.7800000000000004
 20
5.055999999999999
 40
0.256
100
AcDbArc
 50
360
 51
180
  0
ARC
  5
C7
100
AcDbEntity
  8
Base
  6
ByLayer
 62
  256
370
   -1
100
AcDbCircle
 10
0.7800000000000001
 20
4.82
 40
0.256
100
AcDbArc
 50
180
 51
360
  0
LINE
  5
C8
100
AcDbEntity
  8
Base
  6
ByLayer
 62
  256
370
   -1
100
AcDbLine
 10
0.78
 20
0.43
 11
0.7800000000000001
 21
1.178
  0
LINE
  5
C9
100
AcDbEntity
  8
Base
  6
ByLayer
 62
  256
370
   -1
100
AcDbLine
 10
0.5239999999999999
 20
0.804
 11
1.036
 21
0.804
  0
LINE
  5
CA
100
AcDbEntity
  8
Base
  6
ByLayer
 62
  256
370
   -1
100
AcDbLine
 10
1.036
 20
0.9219999999999999
 11
1.036
 21
0.6860000000000002
  0
LINE
  5
CB
100
AcDbEntity
  8
Base
  6
ByLayer
 62
  256
370
   -1
100
AcDbLine
 10
0.5239999999999998
 20
0.6860000000000002
 11
0.5239999999999999
 21
0.9219999999999999
  0
ARC
  5
CC
100
AcDbEntity
  8
Base
  6
ByLayer
 62
  256
370
   -1
100
AcDbCircle
 10
0.78
 20
0.6859999999999999
 40
0.256
100
AcDbArc
 50
180
 51
360
  0
ARC
  5
CD
100
AcDbEntity
  8
Base
  6
ByLayer
 62
  256
370
   -1
100
AcDbCircle
 10
0.78
 20
0.9219999999999997
 40
0.256
100
AcDbArc
 50
360
 51
180
  0
LINE
  5
CE
100
AcDbEntity
  8
Base
  6
ByLayer
 62
  256
370
   -1
100
AcDbLine
 10
11.224
 20
4.559468600469407
 11
11.224
 21
5.307468600469407
  0
LINE
  5
CF
100
AcDbEntity
  8
Base
  6
ByLayer
 62
  256
370
   -1
100
AcDbLine
 10
11.48
 20
4.933468600469407
 11
10.968
 21
4.933468600469407
  0
LINE
  5
D0
100
AcDbEntity
  8
Base
  6
ByLayer
 62
  256
370
   -1
100
AcDbLine
 10
10.968
 20
5.051468600469405
 11
10.968
 21
4.815468600469406
  0
LINE
  5
D1
100
AcDbEntity
  8
Base
  6
ByLayer
 62
  256
370
   -1
100
AcDbLine
 10
11.48
 20
4.815468600469406
 11
11.48
 21
5.051468600469405
  0
LINE
  5
D2
100
AcDbEntity
  8
Base
  6
ByLayer
 62
  256
370
   -1
100
AcDbLine
 10
12
 20
2.191780350469407
 11
12
 21
3.541156850469406
  0
ARC
  5
D3
100
AcDbEntity
  8
Base
  6
ByLayer
 62
  256
370
   -1
100
AcDbCircle
 10
11.224
 20
5.051468600469405
 40
0.256
100
AcDbArc
 50
0
 51
180
  0
ARC
  5
D4
100
AcDbEntity
  8
Base
  6
ByLayer
 62
  256
370
   -1
100
AcDbCircle
 10
11.224
 20
4.815468600469406
 40
0.256
100
AcDbArc
 50
180
 51
0
  0
LINE
  5
D5
100
AcDbEntity
  8
Base
  6
ByLayer
 62
  256
370
   -1
100
AcDbLine
 10
11.224
 20
0.4254686004694069
 11
11.224
 21
1.173468600469407
  0
LINE
  5
D6
100
AcDbEntity
  8
Base
  6
ByLayer
 62
  256
370
   -1
100
AcDbLine
 10
11.48
 20
0.799468600469407
 11
10.968
 21
0.799468600469407
  0
LINE
  5
D7
100
AcDbEntity
  8
Base
  6
ByLayer
 62
  256
370
   -1
100
AcDbLine
 10
10.968
 20
0.9174686004694069
 11
10.968
 21
0.6814686004694072
  0
LINE
  5
D8
100
AcDbEntity
  8
Base
  6
ByLayer
 62
  256
370
   -1
100
AcDbLine
 10
11.48
 20
0.6814686004694072
 11
11.48
 21
0.9174686004694069
  0
ARC
  5
D9
100
AcDbEntity
  8
Base
  6
ByLayer
 62
  256
370
   -1
100
AcDbCircle
 10
11.224
 20
0.681468600469407
 40
0.256
100
AcDbArc
 50
180
 51
0
  0
ARC
  5
DA
100
AcDbEntity
  8
Base
  6
ByLayer
 62
  256
370
   -1
100
AcDbCircle
 10
11.224
 20
0.9174686004694068
 40
0.256
100
AcDbArc
 50
0
 51
180
  0
LINE
  5
DB
100
AcDbEntity
  8
Base
  6
ByLayer
 62
  256
370
   -1
100
AcDbLine
 10
12
 20
12
 11
2.70152
 21
12
  0
LINE
  5
DC
100
AcDbEntity
  8
Base
  6
ByLayer
 62
  256
370
   -1
100
AcDbLine
 10
1.70152
 20
12
 11
2.498001805406602e-016
 21
12
  0
LINE
  5
DD
100
AcDbEntity
  8
Base
  6
ByLayer
 62
  256
370
   -1
100
AcDbLine
 10
1.7
 20
21
 11
2.7
 21
21.0002
  0
LINE
  5
DE
100
AcDbEntity
  8
PrintAlignment
  6
ByLayer
 62
  256
370
   -1
100
AcDbLine
 10
1.70008
 20
20.5875
 11
2.70008
 21
20.5875
  0
LINE
  5
DF
100
AcDbEntity
  8
Base
  6
ByLayer
 62
  256
370
   -1
100
AcDbLine
 10
1.70152
 20
12
 11
1.699239962037876
 21
20.99999984799241
  0
LINE
  5
E0
100
AcDbEntity
  8
Base
  6
ByLayer
 62
  256
370
   -1
100
AcDbLine
 10
2.70152
 20
12
 11
2.699239987372051
 21
21.00019984799748
  0
CIRCLE
  5
E1
100
AcDbEntity
  8
PrintAlignment
  6
ByLayer
 62
  256
370
   -1
100
AcDbCircle
 10
6
 20
8.5
 40
2.8
  0
DIMENSION
  5
E2
100
AcDbEntity
  8
Measurements
  6
ByLayer
 62
  256
370
   -1
100
AcDbDimension
  2
*D1
 10
-0.9999999999999993
 20
21
 30
0
 11
-1.149999999999999
 21
16.5
 31
0
 70
   32
 71
    5
  3
Standard
 53
0
210
0
220
0
230
1
100
AcDbAlignedDimension
 13
1
 23
12
 33
0
 14
1
 24
21
 34
0
 50
90
100
AcDbRotatedDimension
  0
DIMENSION
  5
E3
100
AcDbEntity
  8
Measurements
  6
ByLayer
 62
  256
370
   -1
100
AcDbDimension
  2
*D2
 10
-0.9999999999999997
 20
12
 30
0
 11
-1.15
 21
6
 31
0
 70
   32
 71
    5
  3
Standard
 53
0
210
0
220
0
230
1
100
AcDbAlignedDimension
 13
-1
 23
0
 33
0
 14
-1
 24
12
 34
0
 50
90
100
AcDbRotatedDimension
  0
DIMENSION
  5
E4
100
AcDbEntity
  8
Measurements
  6
ByLayer
 62
  256
370
   -1
100
AcDbDimension
  2
*D3
 10
12
 20
-1
 30
0
 11
6
 21
-0.85
 31
0
 70
   32
 71
    5
  3
Standard
 53
0
210
0
220
0
230
1
100
AcDbAlignedDimension
 13
0
 23
-1
 33
0
 14
12
 24
-1
 34
0
100
AcDbRotatedDimension
  0
CIRCLE
  5
E5
100
AcDbEntity
  8
Base
  6
ByLayer
 62
  256
370
   -1
100
AcDbCircle
 10
5.993861314121095
 20
8.495885991116598
 40
3.53959878368447
  0
LINE
  5
E6
100
AcDbEntity
  8
Base
  6
ByLayer
 62
  256
370
   -1
100
AcDbLine
 10
8.87881647874643
 20
6.865917090707643
 11
9.263653109812807
 21
6.648921980978625
  0
LINE
  5
E7
100
AcDbEntity
  8
Base
  6
ByLayer
 62
  256
370
   -1
100
AcDbLine
 10
9.263653109812807
 20
6.648921980978625
 11
9.331988586357305
 21
6.75801896984791
  0
LINE
  5
E8
100
AcDbEntity
  8
Base
  6
ByLayer
 62
  256
370
   -1
100
AcDbLine
 10
9.331988586357305
 20
6.75801896984791
 11
9.044260264064686
 21
6.912672943080193
  0
LINE
  5
E9
100
AcDbEntity
  8
Base
  6
ByLayer
 62
  256
370
   -1
100
AcDbLine
 10
9.044260264064686
 20
6.912672943080193
 11
9.125783288714262
 21
7.051741632188293
  0
LINE
  5
EA
100
AcDbEntity
  8
Base
  6
ByLayer
 62
  256
370
   -1
100
AcDbLine
 10
9.125783288714262
 20
7.051741632188293
 11
9.023879507902292
 21
7.109287296646817
  0
LINE
  5
EB
100
AcDbEntity
  8
Base
  6
ByLayer
 62
  256
370
   -1
100
AcDbLine
 10
9.023879507902292
 20
7.109287296646817
 11
8.882413082775086
 21
6.865917090707643
  0
LINE
  5
EC
100
AcDbEntity
  8
Base
  6
ByLayer
 62
  256
370
   -1
100
AcDbLine
 10
8.990311203634819
 20
6.68848462529386
 11
9.045459132074239
 21
6.653717453016835
  0
LINE
  5
ED
100
AcDbEntity
  8
Base
  6
ByLayer
 62
  256
370
   -1
100
AcDbLine
 10
9.045459132074239
 20
6.653717453016835
 11
9.197715369287415
 21
6.91626954710885
  0
LINE
  5
EE
100
AcDbEntity
  8
Base
  6
ByLayer
 62
  256
370
   -1
100
AcDbLine
 10
9.197715369287415
 20
6.91626954710885
 11
9.147362912886207
 21
6.941445775309455
  0
LINE
  5
EF
100
AcDbEntity
  8
Base
  6
ByLayer
 62
  256
370
   -1
100
AcDbLine
 10
9.147362912886207
 20
6.941445775309455
 11
8.993907807663478
 21
6.686086889274755
  0
LINE
  5
F0
100
AcDbEntity
  8
Base
  6
ByLayer
 62
  256
370
   -1
100
AcDbLine
 10
9.201311973316074
 20
6.915070679099299
 11
9.242073485640862
 21
6.893491054927352
  0
LINE
  5
F1
100
AcDbEntity
  8
Base
  6
ByLayer
 62
  256
370
   -1
100
AcDbLine
 10
9.242073485640862
 20
6.893491054927352
 11
9.262454241803255
 21
6.929457095213929
  0
LINE
  5
F2
100
AcDbEntity
  8
Base
  6
ByLayer
 62
  256
370
   -1
100
AcDbLine
 10
9.264541337768652
 20
6.929575634753787
 11
9.129680031419404
 21
6.995571593180014
  0
LINE
  5
F3
100
AcDbEntity
  8
Base
  6
ByLayer
 62
  256
370
   -1
100
AcDbLine
 10
9.129675125361219
 20
6.994862322106269
 11
9.111554698383989
 21
6.955978905884296
  0
LINE
  5
F4
100
AcDbEntity
  8
Base
  6
ByLayer
 62
  256
370
   -1
100
AcDbLine
 10
9.111554698383989
 20
6.955978905884296
 11
9.145152990070937
 21
6.940878550069938
  0
LINE
  5
F5
100
AcDbEntity
  8
Base
  6
ByLayer
 62
  256
370
   -1
100
AcDbLine
 10
2.669410269945794
 20
6.631553815274142
 11
3.195457576811422
 21
6.961732444051504
  0
LINE
  5
F6
100
AcDbEntity
  8
Base
  6
ByLayer
 62
  256
370
   -1
100
AcDbLine
 10
3.195457576811422
 20
6.961732444051504
 11
2.966011411050882
 21
7.319892312555761
  0
LINE
  5
F7
100
AcDbEntity
  8
Base
  6
ByLayer
 62
  256
370
   -1
100
AcDbLine
 10
2.966011411050882
 20
7.319892312555761
 11
2.882067691870196
 21
7.275122328992729
  0
LINE
  5
F8
100
AcDbEntity
  8
Base
  6
ByLayer
 62
  256
370
   -1
100
AcDbLine
 10
2.882067691870196
 20
7.275122328992729
 11
3.049955130231567
 21
7.023291171450673
  0
LINE
  5
F9
100
AcDbEntity
  8
Base
  6
ByLayer
 62
  256
370
   -1
100
AcDbLine
 10
3.049955130231567
 20
7.023291171450673
 11
2.619044038437382
 21
6.743478774181722
  0
LINE
  5
FA
100
AcDbEntity
  8
Base
  6
ByLayer
 62
  256
370
   -1
100
AcDbLine
 10
2.619044038437382
 20
6.743478774181722
 11
2.675006517891173
 21
6.63715006321952
  0
LINE
  5
FB
100
AcDbEntity
  8
Base
  6
ByLayer
 62
  256
370
   -1
100
AcDbLine
 10
3.077936369958462
 20
6.6427463111649
 11
2.80372022063489
 21
7.112831138576738
  0
LINE
  5
FC
100
AcDbEntity
  8
Base
  6
ByLayer
 62
  256
370
   -1
100
AcDbLine
 10
2.80372022063489
 20
7.112831138576738
 11
2.893260187760955
 21
7.15760112213977
  0
LINE
  5
FD
100
AcDbEntity
  8
Base
  6
ByLayer
 62
  256
370
   -1
100
AcDbLine
 10
2.893260187760955
 20
7.15760112213977
 11
2.848490204197923
 21
7.235948593375076
  0
LINE
  5
FE
100
AcDbEntity
  8
Base
  6
ByLayer
 62
  256
370
   -1
100
AcDbLine
 10
2.848490204197923
 20
7.235948593375076
 11
2.602255294601246
 21
7.084849898849843
  0
LINE
  5
FF
100
AcDbEntity
  8
Base
  6
ByLayer
 62
  256
370
   -1
100
AcDbLine
 10
2.602255294601246
 20
7.084849898849843
 11
2.647025278164278
 21
7.028887419396052
  0
LINE
  5
100
100
AcDbEntity
  8
Base
  6
ByLayer
 62
  256
370
   -1
100
AcDbLine
 10
2.647025278164278
 20
7.028887419396052
 11
2.725372749399584
 21
7.068061155013705
  0
LINE
  5
101
100
AcDbEntity
  8
Base
  6
ByLayer
 62
  256
370
   -1
100
AcDbLine
 10
2.725372749399584
 20
7.068061155013705
 11
2.98629412246722
 21
6.588106461498197
  0
LINE
  5
102
100
AcDbEntity
  8
Base
  6
ByLayer
 62
  256
370
   -1
100
AcDbLine
 10
2.987751813535175
 20
6.58668358988715
 11
3.079572277432535
 21
6.641201990326207
  0
ENDSEC
  0
SECTION
  2
OBJECTS
  0
DICTIONARY
  5
C
330
0
100
AcDbDictionary
281
    1
  3
ACAD_GROUP
350
D
  0
DICTIONARY
  5
D
330
C
100
AcDbDictionary
281
    1
  0
ENDSEC
  0
EOF
